<?xml version="1.0" standalone="no"?>
<!DOCTYPE svg PUBLIC "-//W3C//DTD SVG 20010904//EN"
 "http://www.w3.org/TR/2001/REC-SVG-20010904/DTD/svg10.dtd">
<svg version="1.0" xmlns="http://www.w3.org/2000/svg"
 width="1024.000000pt" height="1024.000000pt" viewBox="0 0 1024.000000 1024.000000"
 preserveAspectRatio="xMidYMid meet">

<g transform="translate(0.000000,1024.000000) scale(0.100000,-0.100000)"
fill="#000000" stroke="none">
<path d="M5498 9083 c7 -3 16 -2 19 1 4 3 -2 6 -13 5 -11 0 -14 -3 -6 -6z"/>
<path d="M5368 9073 c7 -3 16 -2 19 1 4 3 -2 6 -13 5 -11 0 -14 -3 -6 -6z"/>
<path d="M5243 9063 c9 -2 25 -2 35 0 9 3 1 5 -18 5 -19 0 -27 -2 -17 -5z"/>
<path d="M5128 9053 c12 -2 30 -2 40 0 9 3 -1 5 -23 4 -22 0 -30 -2 -17 -4z"/>
<path d="M5008 9043 c12 -2 30 -2 40 0 9 3 -1 5 -23 4 -22 0 -30 -2 -17 -4z"/>
<path d="M4855 9033 c-16 -1 -104 -10 -195 -18 -91 -9 -228 -22 -305 -30 -77
-9 -162 -17 -190 -20 -261 -25 -697 -72 -955 -105 -173 -21 -430 -53 -570 -70
-140 -17 -439 -56 -664 -86 -224 -30 -410 -54 -412 -54 -2 0 -4 -144 -4 -319
l0 -319 178 -92 c97 -51 181 -96 186 -101 9 -8 -9 -1534 -19 -1669 -2 -25 -6
-214 -10 -420 -3 -206 -10 -544 -15 -750 -5 -206 -10 -416 -10 -467 l0 -91
-108 -104 c-59 -57 -130 -126 -159 -154 l-52 -49 -6 -250 -7 -250 241 -240
c132 -132 251 -244 264 -249 24 -9 132 10 527 91 230 47 220 42 220 98 0 32
-4 45 -14 45 -7 0 -161 -29 -342 -65 -181 -36 -336 -65 -345 -65 -9 0 -112 93
-229 208 l-213 207 2 215 2 215 158 160 158 160 7 305 c3 168 10 481 16 695 5
215 16 746 24 1180 9 435 18 903 20 1041 5 229 4 253 -12 266 -9 9 -66 41
-127 74 -60 32 -137 73 -170 90 l-60 33 0 238 0 238 130 17 c72 9 216 29 320
43 305 40 621 80 1065 134 243 30 817 91 1230 131 118 11 276 27 351 35 75 8
154 15 175 16 34 1 36 2 14 9 -15 4 11 7 65 5 50 -1 69 -1 43 2 -27 2 -48 8
-48 13 0 5 -8 7 -17 3 -10 -3 -15 -3 -11 2 4 4 3 14 -2 20 -8 9 -4 11 13 8 13
-3 31 2 39 10 8 8 26 18 39 21 13 2 -7 3 -44 0 -46 -3 -67 -1 -62 6 6 10 -42
11 -110 3z m58 -10 c-7 -2 -19 -2 -25 0 -7 3 -2 5 12 5 14 0 19 -2 13 -5z"/>
<path d="M5538 8983 c6 -2 18 -2 25 0 6 3 1 5 -13 5 -14 0 -19 -2 -12 -5z"/>
<path d="M5288 8963 c7 -3 16 -2 19 1 4 3 -2 6 -13 5 -11 0 -14 -3 -6 -6z"/>
<path d="M5163 8953 c9 -2 25 -2 35 0 9 3 1 5 -18 5 -19 0 -27 -2 -17 -5z"/>
<path d="M5963 8883 c15 -2 37 -2 50 0 12 2 0 4 -28 4 -27 0 -38 -2 -22 -4z"/>
<path d="M6100 8854 c-8 -2 -76 -8 -150 -13 -74 -6 -184 -15 -245 -21 -60 -5
-243 -21 -405 -35 -592 -50 -987 -89 -997 -98 -9 -10 7 -25 76 -72 81 -53 126
-101 155 -164 20 -45 21 -62 24 -581 4 -533 4 -534 25 -556 12 -11 32 -26 45
-33 l23 -12 -3 549 -3 549 -38 75 c-48 94 -83 128 -188 183 -94 49 -96 47 51
60 36 3 211 19 390 35 179 16 408 36 510 45 431 36 657 56 682 61 60 12 43 -9
-43 -53 -107 -55 -180 -120 -210 -188 -21 -47 -23 -73 -35 -450 -15 -459 -28
-771 -48 -1175 -8 -157 -18 -365 -22 -462 l-7 -178 37 0 c35 0 36 -1 36 -40 0
-28 4 -40 14 -40 11 0 16 21 20 83 8 106 34 776 41 1067 4 124 8 234 10 245 5
24 336 327 408 373 29 18 67 37 87 42 19 6 325 46 680 90 355 44 651 82 658
85 7 2 52 -19 100 -47 48 -28 146 -86 217 -128 72 -42 185 -109 253 -149 l122
-72 -2 -378 -3 -379 33 3 c18 2 32 -2 32 -8 0 -7 3 -7 8 -1 4 5 5 180 2 389
l-5 380 -165 99 c-356 213 -542 316 -574 316 -30 0 -385 -42 -1086 -130 -309
-38 -328 -42 -397 -75 -40 -18 -92 -47 -115 -63 -52 -34 -175 -103 -183 -102
-3 1 -17 -6 -31 -14 l-24 -16 0 332 c0 329 0 334 24 384 26 56 96 120 191 174
50 29 55 35 55 66 0 19 0 37 1 41 1 9 -11 12 -31 7z"/>
<path d="M5048 8803 c7 -3 16 -2 19 1 4 3 -2 6 -13 5 -11 0 -14 -3 -6 -6z"/>
<path d="M4778 8783 c6 -2 18 -2 25 0 6 3 1 5 -13 5 -14 0 -19 -2 -12 -5z"/>
<path d="M4708 8773 c7 -3 16 -2 19 1 4 3 -2 6 -13 5 -11 0 -14 -3 -6 -6z"/>
<path d="M3893 8693 c9 -2 23 -2 30 0 6 3 -1 5 -18 5 -16 0 -22 -2 -12 -5z"/>
<path d="M3800 8644 c-232 -28 -999 -122 -1435 -175 -376 -45 -457 -58 -450
-69 3 -5 53 -37 112 -72 185 -109 244 -190 258 -350 4 -40 0 -482 -9 -983 -9
-500 -20 -1225 -26 -1610 -5 -385 -12 -776 -15 -870 l-6 -170 -155 -152 -156
-153 49 0 48 1 152 147 152 147 5 420 c4 231 8 530 11 665 3 135 7 412 10 615
3 204 10 633 15 955 17 1033 17 1058 -3 1117 -21 59 -90 142 -151 180 -21 14
-76 43 -120 66 -45 22 -76 41 -71 43 6 1 109 14 230 29 121 14 270 32 330 40
61 9 385 49 720 90 336 42 628 78 650 81 38 6 34 3 -65 -66 -136 -93 -164
-121 -206 -205 -42 -85 -49 -140 -63 -450 -12 -264 -22 -649 -14 -590 5 47 20
67 33 45 14 -23 44 0 48 36 5 54 12 74 27 74 13 0 15 31 16 203 0 319 15 605
33 654 25 71 81 148 143 197 126 101 132 106 127 121 -7 18 9 18 -224 -11z"/>
<path d="M4251 8654 c0 -12 7 -28 17 -35 15 -12 16 -12 6 1 -7 8 -14 24 -17
35 -4 19 -5 19 -6 -1z"/>
<path d="M3268 8623 c6 -2 18 -2 25 0 6 3 1 5 -13 5 -14 0 -19 -2 -12 -5z"/>
<path d="M3188 8613 c6 -2 18 -2 25 0 6 3 1 5 -13 5 -14 0 -19 -2 -12 -5z"/>
<path d="M4299 8597 c14 -18 51 -42 51 -33 0 3 -15 15 -32 27 -24 17 -29 18
-19 6z"/>
<path d="M2868 8573 c7 -3 16 -2 19 1 4 3 -2 6 -13 5 -11 0 -14 -3 -6 -6z"/>
<path d="M2698 8553 c7 -3 16 -2 19 1 4 3 -2 6 -13 5 -11 0 -14 -3 -6 -6z"/>
<path d="M4395 8520 c21 -22 41 -40 44 -40 3 0 -13 18 -34 40 -21 22 -41 40
-44 40 -3 0 13 -18 34 -40z"/>
<path d="M2543 8533 c9 -2 23 -2 30 0 6 3 -1 5 -18 5 -16 0 -22 -2 -12 -5z"/>
<path d="M3949 8503 c-13 -16 -12 -17 4 -4 9 7 17 15 17 17 0 8 -8 3 -21 -13z"/>
<path d="M6184 8504 c-18 -14 -18 -15 4 -4 12 6 22 13 22 15 0 8 -5 6 -26 -11z"/>
<path d="M2138 8483 c6 -2 18 -2 25 0 6 3 1 5 -13 5 -14 0 -19 -2 -12 -5z"/>
<path d="M6134 8474 c-18 -14 -18 -15 4 -4 12 6 22 13 22 15 0 8 -5 6 -26 -11z"/>
<path d="M1863 8405 c0 -22 2 -30 4 -17 2 12 2 30 0 40 -3 9 -5 -1 -4 -23z"/>
<path d="M6090 8389 c0 -15 16 -17 39 -5 22 12 22 13 -8 13 -17 0 -31 -4 -31
-8z"/>
<path d="M6618 8303 c7 -3 16 -2 19 1 4 3 -2 6 -13 5 -11 0 -14 -3 -6 -6z"/>
<path d="M6458 8283 c7 -3 16 -2 19 1 4 3 -2 6 -13 5 -11 0 -14 -3 -6 -6z"/>
<path d="M7568 8283 c6 -2 18 -2 25 0 6 3 1 5 -13 5 -14 0 -19 -2 -12 -5z"/>
<path d="M6123 8260 c-27 -16 -33 -26 -33 -55 0 -21 5 -35 13 -35 16 1 65 29
51 30 -7 0 -9 11 -6 25 4 21 1 24 -14 19 -18 -5 -18 -5 -1 6 9 6 22 8 27 5 6
-3 7 1 4 9 -7 19 -3 20 -41 -4z"/>
<path d="M7228 8243 c6 -2 18 -2 25 0 6 3 1 5 -13 5 -14 0 -19 -2 -12 -5z"/>
<path d="M7068 8223 c7 -3 16 -2 19 1 4 3 -2 6 -13 5 -11 0 -14 -3 -6 -6z"/>
<path d="M6988 8213 c7 -3 16 -2 19 1 4 3 -2 6 -13 5 -11 0 -14 -3 -6 -6z"/>
<path d="M6568 8163 c6 -2 18 -2 25 0 6 3 1 5 -13 5 -14 0 -19 -2 -12 -5z"/>
<path d="M6378 8143 c12 -2 30 -2 40 0 9 3 -1 5 -23 4 -22 0 -30 -2 -17 -4z"/>
<path d="M6318 8133 c7 -3 16 -2 19 1 4 3 -2 6 -13 5 -11 0 -14 -3 -6 -6z"/>
<path d="M6026 7755 c-91 -90 -101 -111 -93 -195 3 -41 4 -40 5 13 1 32 7 68
13 80 6 12 48 59 92 105 45 45 78 82 75 82 -4 0 -46 -38 -92 -85z"/>
<path d="M7180 7438 c-54 -10 -284 -50 -470 -80 -74 -12 -125 -24 -113 -26 12
-2 113 13 224 33 112 20 211 34 221 32 11 -3 15 -1 12 5 -5 7 4 9 24 6 17 -2
29 -2 27 2 -2 3 11 7 28 7 18 1 52 8 77 16 50 17 38 19 -30 5z"/>
<path d="M6968 7373 c7 -3 16 -2 19 1 4 3 -2 6 -13 5 -11 0 -14 -3 -6 -6z"/>
<path d="M6868 7353 c7 -3 16 -2 19 1 4 3 -2 6 -13 5 -11 0 -14 -3 -6 -6z"/>
<path d="M6470 7321 l-35 -7 45 -6 c25 -4 55 -10 65 -13 11 -3 7 1 -10 9 l-30
14 35 5 35 4 -35 0 c-19 0 -51 -3 -70 -6z"/>
<path d="M7188 7303 c7 -3 16 -2 19 1 4 3 -2 6 -13 5 -11 0 -14 -3 -6 -6z"/>
<path d="M7244 7205 c0 -60 1 -84 3 -52 2 32 2 81 0 110 -2 29 -3 3 -3 -58z"/>
<path d="M7030 7266 c-101 -27 -220 -66 -220 -72 0 -7 52 6 88 23 19 8 44 12
58 9 23 -6 154 9 184 21 8 3 22 6 30 5 8 -1 5 3 -6 9 -17 8 -35 7 -77 -5 -30
-9 -63 -16 -74 -15 -10 0 11 9 45 19 123 37 102 41 -28 6z"/>
<path d="M4608 7263 c7 -3 16 -2 19 1 4 3 -2 6 -13 5 -11 0 -14 -3 -6 -6z"/>
<path d="M8253 7207 c0 -37 4 -70 9 -73 10 -6 9 36 -2 96 -8 43 -8 42 -7 -23z"/>
<path d="M7178 7233 c6 -2 18 -2 25 0 6 3 1 5 -13 5 -14 0 -19 -2 -12 -5z"/>
<path d="M7113 7223 c9 -2 25 -2 35 0 9 3 1 5 -18 5 -19 0 -27 -2 -17 -5z"/>
<path d="M6991 7209 c-25 -5 -50 -11 -55 -13 -18 -8 98 6 119 15 l20 8 -20 -1
c-11 0 -40 -4 -64 -9z"/>
<path d="M6883 7183 c9 -2 23 -2 30 0 6 3 -1 5 -18 5 -16 0 -22 -2 -12 -5z"/>
<path d="M8020 7165 c-85 -13 -164 -24 -174 -25 -11 0 -16 -3 -13 -6 6 -7 313
31 377 46 l35 8 -35 0 c-19 0 -105 -11 -190 -23z"/>
<path d="M6828 7173 c6 -2 18 -2 25 0 6 3 1 5 -13 5 -14 0 -19 -2 -12 -5z"/>
<path d="M8229 7146 c-2 -3 -69 -14 -149 -25 -218 -31 -477 -70 -547 -83 -100
-18 -64 -22 44 -4 114 18 534 81 611 91 28 4 52 11 52 16 0 10 -4 12 -11 5z"/>
<path d="M7700 7117 c-36 -6 -58 -12 -50 -14 8 -1 51 3 95 11 44 7 67 14 50
14 -16 -1 -59 -5 -95 -11z"/>
<path d="M5914 7035 c0 -49 1 -71 3 -48 2 23 2 64 0 90 -2 26 -3 8 -3 -42z"/>
<path d="M7201 7104 c0 -11 3 -14 6 -6 3 7 2 16 -1 19 -3 4 -6 -2 -5 -13z"/>
<path d="M7540 7090 c-27 -6 -29 -8 -10 -8 14 -1 43 3 65 7 33 7 35 9 10 9
-16 -1 -46 -4 -65 -8z"/>
<path d="M7450 7060 c0 -11 2 -20 4 -20 2 0 6 9 9 20 3 11 1 20 -4 20 -5 0 -9
-9 -9 -20z"/>
<path d="M7201 7054 c0 -11 3 -14 6 -6 3 7 2 16 -1 19 -3 4 -6 -2 -5 -13z"/>
<path d="M8313 7063 c9 -2 23 -2 30 0 6 3 -1 5 -18 5 -16 0 -22 -2 -12 -5z"/>
<path d="M7445 7020 c-3 -5 -1 -10 4 -10 6 0 11 5 11 10 0 6 -2 10 -4 10 -3 0
-8 -4 -11 -10z"/>
<path d="M8334 6914 c-18 -14 -18 -15 4 -4 12 6 22 13 22 15 0 8 -5 6 -26 -11z"/>
<path d="M7121 6901 c-8 -6 -9 -11 -3 -15 6 -3 14 -1 17 5 9 14 2 20 -14 10z"/>
<path d="M8414 6894 c-18 -14 -18 -14 6 -3 31 14 36 19 24 19 -6 0 -19 -7 -30
-16z"/>
<path d="M7211 6833 c0 -18 3 -33 9 -33 5 0 7 -8 4 -17 -5 -15 -4 -15 4 -3 6
8 7 19 2 25 -4 5 -10 21 -13 35 -4 21 -4 20 -6 -7z"/>
<path d="M5904 6750 c0 -52 1 -74 3 -47 2 26 2 68 0 95 -2 26 -3 4 -3 -48z"/>
<path d="M7120 6819 c0 -5 5 -7 10 -4 6 3 10 8 10 11 0 2 -4 4 -10 4 -5 0 -10
-5 -10 -11z"/>
<path d="M7105 6770 c-3 -5 -1 -10 4 -10 6 0 11 5 11 10 0 6 -2 10 -4 10 -3 0
-8 -4 -11 -10z"/>
<path d="M7047 6720 c-9 -11 -13 -20 -7 -20 5 0 14 9 20 20 6 11 9 20 8 20 -2
0 -11 -9 -21 -20z"/>
<path d="M7040 6659 c0 -5 5 -7 10 -4 6 3 10 8 10 11 0 2 -4 4 -10 4 -5 0 -10
-5 -10 -11z"/>
<path d="M7805 6650 c-3 -6 1 -7 9 -4 18 7 21 14 7 14 -6 0 -13 -4 -16 -10z"/>
<path d="M5894 6455 c0 -49 1 -71 3 -48 2 23 2 64 0 90 -2 26 -3 8 -3 -42z"/>
<path d="M7670 6520 c-9 -6 -10 -10 -3 -10 6 0 15 5 18 10 8 12 4 12 -15 0z"/>
<path d="M7547 6509 c7 -7 15 -10 18 -7 3 3 -2 9 -12 12 -14 6 -15 5 -6 -5z"/>
<path d="M4048 6473 c6 -2 18 -2 25 0 6 3 1 5 -13 5 -14 0 -19 -2 -12 -5z"/>
<path d="M3988 6463 c6 -2 18 -2 25 0 6 3 1 5 -13 5 -14 0 -19 -2 -12 -5z"/>
<path d="M3868 6443 c7 -3 16 -2 19 1 4 3 -2 6 -13 5 -11 0 -14 -3 -6 -6z"/>
<path d="M3918 6373 c7 -3 16 -2 19 1 4 3 -2 6 -13 5 -11 0 -14 -3 -6 -6z"/>
<path d="M3878 6363 c7 -3 16 -2 19 1 4 3 -2 6 -13 5 -11 0 -14 -3 -6 -6z"/>
<path d="M3828 6353 c7 -3 16 -2 19 1 4 3 -2 6 -13 5 -11 0 -14 -3 -6 -6z"/>
<path d="M5883 6220 c0 -41 2 -58 4 -37 2 20 2 54 0 75 -2 20 -4 3 -4 -38z"/>
<path d="M7790 6175 c135 -46 249 -81 254 -78 5 4 6 0 1 -7 -6 -9 -2 -10 15
-5 14 5 20 3 16 -3 -3 -6 6 -15 22 -20 15 -6 53 -22 85 -36 31 -14 57 -23 57
-21 0 3 -27 17 -60 32 -33 14 -59 27 -57 29 1 2 30 -5 62 -15 46 -14 61 -24
67 -42 6 -22 7 -21 5 4 -2 31 25 21 -546 202 -230 72 -188 51 79 -40z"/>
<path d="M4515 5865 c-4 -209 -11 -422 -15 -474 -10 -104 -17 -119 -122 -247
-58 -70 -60 -75 -62 -133 l-1 -60 63 62 c87 85 158 176 184 234 19 42 23 74
29 258 4 116 8 328 8 471 l1 262 -39 4 -39 3 -7 -380z"/>
<path d="M8450 6206 c0 -3 9 -10 20 -16 11 -6 20 -8 20 -6 0 3 -9 10 -20 16
-11 6 -20 8 -20 6z"/>
<path d="M5778 6155 c-3 -5 -9 -25 -13 -42 -8 -39 11 -46 21 -9 7 28 1 66 -8
51z"/>
<path d="M8368 5288 l2 -796 -87 -84 c-92 -87 -89 -87 13 1 76 64 175 97 133
44 -13 -17 -13 -17 11 -2 24 16 25 22 31 150 4 74 7 436 8 806 l1 671 -57 4
-58 3 3 -797z"/>
<path d="M5875 6068 c-3 -7 -4 -26 -2 -41 2 -27 9 -30 157 -81 85 -30 220 -77
300 -106 80 -28 140 -46 134 -40 -6 6 -55 26 -110 46 -54 19 -113 41 -131 49
-17 8 -36 15 -43 15 -6 0 -25 7 -43 17 -18 9 -44 18 -60 19 -15 2 -52 15 -82
29 -30 14 -64 28 -76 30 -12 2 -24 7 -27 10 -26 25 44 1 888 -308 173 -63 365
-134 425 -156 61 -23 129 -49 153 -57 41 -15 42 -17 42 -60 0 -45 0 -45 -22
-30 -12 9 -27 16 -33 16 -5 0 4 -9 20 -20 17 -11 33 -20 38 -20 4 0 7 24 7 54
l0 53 -217 81 c-120 45 -297 110 -393 145 -96 36 -260 97 -365 135 -104 39
-271 100 -370 136 -132 48 -180 69 -179 80 2 19 -5 21 -11 4z"/>
<path d="M4462 5895 c0 -16 2 -22 5 -12 2 9 2 23 0 30 -3 6 -5 -1 -5 -18z"/>
<path d="M5662 5870 c0 -14 2 -19 5 -12 2 6 2 18 0 25 -3 6 -5 1 -5 -13z"/>
<path d="M4462 5765 c0 -16 2 -22 5 -12 2 9 2 23 0 30 -3 6 -5 -1 -5 -18z"/>
<path d="M6505 5775 c40 -19 67 -18 35 0 -14 8 -34 14 -45 14 -15 -1 -13 -4
10 -14z"/>
<path d="M6580 5752 c8 -5 26 -13 40 -16 17 -5 20 -4 10 2 -8 5 -26 13 -40 16
-17 5 -20 4 -10 -2z"/>
<path d="M4453 5490 c0 -36 2 -50 4 -32 2 17 2 47 0 65 -2 17 -4 3 -4 -33z"/>
<path d="M5823 5143 c9 -2 23 -2 30 0 6 3 -1 5 -18 5 -16 0 -22 -2 -12 -5z"/>
<path d="M5595 5117 c-77 -12 -131 -23 -120 -24 11 -2 90 8 175 21 85 13 139
24 120 24 -19 0 -98 -10 -175 -21z"/>
<path d="M5930 5130 c-13 -8 -12 -10 3 -10 9 0 17 5 17 10 0 12 -1 12 -20 0z"/>
<path d="M6210 5096 c0 -2 7 -7 16 -10 8 -3 12 -2 9 4 -6 10 -25 14 -25 6z"/>
<path d="M5403 5083 c9 -2 23 -2 30 0 6 3 -1 5 -18 5 -16 0 -22 -2 -12 -5z"/>
<path d="M5343 5073 c9 -2 23 -2 30 0 6 3 -1 5 -18 5 -16 0 -22 -2 -12 -5z"/>
<path d="M5175 5054 c-49 -8 -141 -22 -203 -31 -62 -8 -110 -18 -108 -20 7 -8
444 54 455 63 8 7 -53 2 -144 -12z"/>
<path d="M4176 4995 c-9 -26 -7 -32 5 -12 6 10 9 21 6 23 -2 3 -7 -2 -11 -11z"/>
<path d="M4793 4993 c9 -2 25 -2 35 0 9 3 1 5 -18 5 -19 0 -27 -2 -17 -5z"/>
<path d="M4641 4979 c-34 -4 -68 -10 -75 -13 -21 -8 39 -5 124 8 93 15 54 18
-49 5z"/>
<path d="M4353 4953 c9 -2 25 -2 35 0 9 3 1 5 -18 5 -19 0 -27 -2 -17 -5z"/>
<path d="M7312 4860 c0 -14 2 -19 5 -12 2 6 2 18 0 25 -3 6 -5 1 -5 -13z"/>
<path d="M3107 4753 c-3 -5 -5 -49 -6 -99 l-2 -91 47 -7 c26 -3 63 -6 83 -6
48 0 160 -41 221 -80 61 -39 109 -87 165 -165 59 -82 158 -272 151 -290 -6
-16 -71 -22 -79 -7 -5 10 -1 -9 8 -29 5 -13 -2 -20 -32 -29 -39 -13 -47 -16
-167 -69 -38 -17 -73 -31 -77 -31 -22 0 -5 17 41 43 48 27 68 54 33 43 -10 -3
-169 -35 -353 -71 -434 -86 -802 -160 -915 -185 -49 -11 -95 -20 -101 -20 -6
0 -53 33 -104 73 -70 55 -100 72 -117 69 -13 -2 -23 -10 -23 -16 0 -11 206
-211 235 -228 6 -4 119 15 251 43 715 150 859 179 866 177 4 -2 -36 -36 -87
-77 -242 -191 -285 -333 -174 -570 62 -133 68 -208 32 -396 -21 -108 -14 -254
14 -317 59 -131 219 -228 375 -228 130 0 268 57 473 195 70 47 137 88 150 91
60 15 57 18 304 -393 129 -216 239 -389 244 -386 6 3 7 1 3 -5 -10 -16 12 -54
26 -46 7 4 8 3 4 -4 -9 -15 12 -54 24 -47 6 3 7 0 4 -8 -3 -8 0 -18 7 -23 8
-5 10 -3 4 7 -18 31 14 -9 49 -61 34 -51 39 -52 39 -7 0 10 7 17 18 17 11 0
19 5 19 11 0 5 5 7 11 3 8 -4 8 0 0 15 -14 25 -22 28 -15 4 5 -15 3 -15 -10 1
-19 23 -21 40 -4 30 7 -4 8 -3 4 5 -4 6 -11 9 -16 6 -4 -3 -21 16 -36 42 -15
27 -34 58 -42 71 -8 12 -12 22 -9 22 3 0 22 -27 42 -60 20 -33 39 -60 42 -60
3 0 -1 10 -9 23 -8 12 -38 61 -67 110 -31 51 -57 85 -63 81 -7 -4 -8 -2 -4 4
10 16 -12 54 -26 46 -7 -4 -8 -3 -4 4 4 7 -30 72 -77 149 -46 76 -130 215
-186 308 -57 94 -112 181 -124 194 -73 80 -187 63 -342 -50 -181 -132 -296
-180 -439 -181 -64 0 -93 4 -132 21 -59 26 -118 81 -147 136 -30 57 -34 187
-9 280 l18 70 7 -69 c4 -38 13 -76 20 -85 8 -9 17 -28 21 -42 8 -34 108 -127
164 -151 27 -12 66 -19 110 -19 178 -1 334 116 316 236 -5 39 -12 48 -55 76
-27 17 -47 35 -44 39 6 10 60 20 144 27 44 3 83 -1 124 -12 60 -17 248 -104
277 -129 8 -7 34 -24 58 -36 33 -19 42 -29 42 -50 0 -38 299 -545 322 -545 6
0 17 -11 26 -25 l14 -25 -21 25 c-24 30 -28 20 -5 -15 9 -14 21 -22 27 -18 6
3 7 1 3 -5 -7 -11 55 -115 76 -128 16 -10 21 4 10 34 -5 16 -7 34 -3 40 7 12
61 4 61 -9 0 -5 6 -9 13 -9 7 0 20 -12 30 -27 9 -16 26 -39 37 -53 l21 -25
-12 25 c-7 14 -49 90 -94 170 -45 80 -106 190 -135 245 -29 55 -74 138 -100
185 -52 93 -140 257 -293 540 -54 102 -104 191 -110 198 -5 7 -8 14 -6 16 7 5
72 26 74 24 6 -8 324 -582 455 -823 85 -154 199 -361 255 -460 l102 -180 77
-3 77 -3 130 268 c72 147 170 347 216 443 47 96 150 306 228 467 l143 292 33
-9 c19 -6 35 -10 36 -10 8 0 -507 -1063 -714 -1475 -28 -56 5 -10 48 65 25 45
68 100 106 137 36 34 66 67 67 75 6 33 18 58 26 53 5 -3 18 11 30 32 19 36 20
36 14 8 -4 -16 -13 -46 -21 -65 -23 -57 -33 -112 -20 -107 33 10 250 405 240
435 -4 13 -2 14 4 4 7 -9 21 11 49 70 21 46 44 100 50 121 11 33 10 37 -5 37
-9 0 -22 -5 -29 -12 -9 -9 -12 -7 -12 13 0 40 16 51 70 51 14 0 54 21 90 47
152 109 206 130 350 138 87 5 112 3 138 -11 40 -21 40 -32 0 -50 -46 -21 -64
-37 -72 -66 -6 -24 -5 -24 5 -3 6 11 27 29 45 39 34 18 35 18 97 -4 91 -32 97
-31 84 19 -12 49 -39 64 -162 86 -96 17 -197 12 -278 -16 -73 -25 -174 -79
-181 -96 -2 -7 -24 -27 -48 -43 -32 -22 -51 -29 -71 -25 -31 6 -37 23 -7 23
11 0 21 -1 23 -2 2 -2 28 18 58 45 121 106 289 166 428 152 69 -7 176 -38 200
-58 11 -10 13 -9 9 2 -13 42 -136 91 -225 91 -72 0 -224 -41 -300 -80 -31 -16
-58 -28 -60 -26 -2 2 10 15 27 30 17 14 26 26 19 26 -20 0 60 77 98 95 18 9
33 20 33 26 0 5 -13 3 -30 -6 -49 -26 -46 -17 10 25 29 22 57 40 61 40 4 0 10
7 13 15 5 14 4 14 -16 0 -13 -8 -27 -15 -33 -15 -15 1 35 40 51 40 8 0 14 4
14 10 0 16 -47 23 -118 17 -46 -3 -61 -2 -48 5 21 12 151 5 191 -10 17 -6 69
-23 117 -37 49 -15 91 -32 95 -38 4 -7 0 -8 -13 -3 -50 20 -112 36 -143 36
-52 0 -32 -10 83 -40 65 -17 124 -39 156 -60 28 -18 49 -35 46 -37 -2 -2 -22
7 -43 20 -82 52 -250 85 -293 57 -12 -8 -12 -10 5 -10 128 -5 271 -52 301
-101 8 -13 -10 -5 -36 17 -49 41 -201 65 -285 44 -25 -6 -27 -8 -12 -14 9 -5
24 -5 32 -2 30 11 170 -15 232 -44 46 -21 68 -39 87 -69 15 -23 31 -41 36 -41
20 0 50 -45 50 -77 0 -64 -71 -66 -149 -4 -47 37 -74 39 -106 6 -79 -78 51
-215 204 -215 155 0 255 103 222 228 -25 93 -155 243 -281 327 -282 186 -783
306 -1375 330 -257 11 -656 -25 -940 -85 -111 -23 -368 -97 -468 -135 -157
-59 -317 -150 -408 -232 -89 -80 -168 -213 -170 -285 l-1 -43 -10 32 c-9 27
-7 45 10 97 40 121 143 247 280 340 68 47 91 72 40 45 -41 -21 -208 -151 -228
-177 -11 -13 -20 -22 -20 -18 0 18 62 82 134 139 43 34 88 70 100 80 l21 18
-25 -12 c-49 -24 -146 -92 -194 -138 l-49 -46 34 43 c19 24 67 70 108 102 40
33 69 60 64 60 -11 0 -118 -73 -150 -103 -13 -11 -23 -16 -23 -10 0 6 34 38
75 72 42 34 73 66 70 71 -3 5 12 21 35 36 22 15 40 28 40 31 0 14 -138 -77
-203 -134 -20 -18 -40 -33 -45 -33 -8 0 73 78 154 148 l49 42 -65 -40 c-36
-22 -81 -52 -100 -67 -41 -31 55 65 115 115 26 21 31 28 15 21 -34 -17 -126
-84 -180 -133 -32 -30 -38 -33 -20 -11 30 36 68 73 134 128 95 81 100 88 26
38 -41 -27 -102 -73 -135 -102 -49 -42 -45 -37 20 27 44 44 98 94 120 112 25
21 31 29 15 21 -32 -15 -110 -76 -132 -103 -9 -11 -19 -18 -22 -15 -6 6 74 84
129 127 20 15 23 19 8 12 -13 -6 -53 -33 -90 -61 l-68 -51 45 46 c25 26 66 61
93 78 62 40 60 46 -3 12 -28 -15 -84 -61 -126 -101 -42 -41 -78 -73 -79 -71
-5 4 173 186 220 226 38 32 38 32 -15 -4 -30 -20 -75 -56 -100 -79 -87 -80
-84 -66 5 21 70 68 80 81 45 57 -25 -17 -74 -58 -108 -91 -34 -33 -62 -57 -62
-53 0 11 131 135 184 175 27 20 45 36 39 36 -11 0 -144 -90 -183 -123 -19 -16
-17 -13 5 12 17 18 74 65 128 103 53 38 97 72 97 74 0 7 -42 -16 -90 -51 -25
-18 -65 -45 -90 -60 l-45 -27 55 53 c52 51 137 121 198 163 15 10 20 16 12 13
-34 -10 -229 -153 -289 -210 -51 -49 -58 -53 -34 -22 165 213 655 441 1173
545 346 69 596 86 1005 65 311 -15 696 -87 975 -182 147 -49 199 -77 458 -242
79 -50 72 -36 -11 21 -209 147 -392 232 -631 294 -559 145 -1150 173 -1700 79
-242 -42 -538 -124 -684 -191 -31 -14 -90 -41 -131 -60 -115 -53 -96 -31 23
27 114 56 137 76 40 34 -75 -33 -132 -63 -164 -88 -24 -19 -24 -19 -2 -13 43
14 21 -5 -45 -37 -132 -65 -187 -102 -275 -186 -76 -72 -56 -38 25 41 216 214
515 359 977 472 605 148 1292 140 1924 -24 297 -77 523 -204 750 -423 64 -62
70 -88 9 -40 -40 31 -177 124 -203 137 -19 10 8 -13 119 -99 50 -38 91 -74 91
-78 0 -8 -37 18 -115 79 -37 30 -145 89 -145 80 0 -2 31 -24 68 -49 83 -57
212 -164 212 -177 0 -6 -8 -2 -18 8 -19 19 -120 96 -172 132 -33 23 -34 23
-16 2 11 -12 55 -50 98 -84 43 -34 78 -63 78 -65 0 -5 -18 6 -55 33 -40 29
-135 76 -135 67 0 -5 22 -20 48 -34 62 -35 135 -89 129 -96 -3 -2 -29 13 -59
34 -56 41 -107 67 -115 59 -3 -3 12 -14 34 -25 21 -11 56 -37 78 -57 34 -31
35 -34 10 -19 -16 10 -45 29 -63 42 -18 14 -35 23 -38 20 -2 -2 19 -23 49 -45
61 -48 105 -92 90 -92 -5 0 -18 10 -29 21 -19 21 -125 99 -154 113 -8 4 3 -7
25 -25 65 -54 186 -176 139 -141 -22 17 -47 39 -55 48 -17 21 -89 67 -95 61
-3 -2 7 -12 21 -21 39 -25 165 -147 177 -170 6 -12 -18 7 -53 41 -35 35 -90
81 -122 103 l-58 40 26 -34 c15 -19 43 -47 63 -62 48 -37 144 -135 138 -141
-3 -3 -17 9 -32 26 -30 36 -131 110 -184 134 l-35 17 25 -21 c14 -11 53 -43
88 -72 72 -59 84 -84 15 -31 -25 19 -69 47 -97 61 -58 29 -53 22 24 -32 72
-51 130 -102 166 -145 18 -21 -3 -7 -53 36 -70 60 -183 135 -183 121 0 -3 24
-21 53 -40 50 -34 146 -121 177 -162 8 -11 -12 4 -45 33 -55 48 -182 128 -191
119 -2 -2 25 -22 59 -44 34 -23 85 -65 112 -94 l50 -53 -60 51 c-65 54 -144
107 -151 100 -2 -2 13 -16 35 -31 48 -33 163 -152 181 -186 7 -15 -15 2 -56
41 -67 64 -181 145 -191 135 -2 -2 19 -22 49 -44 73 -55 117 -103 182 -201 82
-124 105 -217 71 -299 -31 -73 -94 -114 -205 -132 l-55 -9 61 4 c110 8 185 57
235 153 19 37 22 58 21 145 -2 124 12 220 45 307 26 67 47 152 65 254 8 49 7
72 -7 125 -10 36 -24 78 -31 93 -19 36 -18 56 1 32 15 -19 15 -19 13 0 -2 16
6 22 47 31 42 10 46 12 25 17 -23 5 -23 5 5 7 44 3 154 29 127 30 -13 1 -21 5
-18 10 3 4 -12 5 -34 1 -22 -4 -37 -3 -34 1 3 5 -7 9 -23 8 -24 0 -25 -2 -8
-8 14 -6 4 -8 -30 -7 -27 0 -68 -3 -90 -7 -36 -7 -43 -5 -72 22 -17 17 -70 56
-118 87 -47 31 -84 58 -81 61 2 2 13 0 24 -6 12 -6 58 -10 104 -10 46 1 74 4
64 6 -18 5 -18 6 5 19 23 12 22 13 -16 9 -37 -4 -38 -4 -10 5 35 11 275 49
534 85 101 14 189 29 195 33 6 4 -2 10 -19 14 l-30 7 31 -2 c19 -2 31 1 30 9
-2 18 231 225 246 219 8 -3 52 31 103 79 50 47 86 85 80 85 -5 1 -47 -35 -93
-79 -77 -74 -120 -107 -76 -59 57 63 176 162 183 151 5 -8 18 0 42 25 19 20
28 33 22 29 -26 -14 -12 12 15 29 15 10 21 12 15 4 -22 -23 -14 -33 10 -12 23
21 61 44 42 26 -5 -5 -83 -76 -172 -156 -89 -81 -165 -152 -168 -158 -4 -5
-15 -7 -24 -4 -11 3 -24 -2 -32 -12 -13 -16 -12 -17 4 -4 9 8 20 12 23 9 2 -3
-35 -40 -83 -81 -103 -90 -184 -169 -178 -175 2 -2 25 4 52 14 59 22 144 83
173 124 12 17 29 29 38 28 10 -2 16 2 15 9 -1 6 68 76 155 154 229 209 302
281 296 290 -3 5 -27 9 -53 9 -59 0 -99 -25 -232 -147 -52 -48 -170 -156 -261
-240 l-166 -151 -58 -7 c-33 -4 -189 -28 -349 -55 -398 -66 -394 -66 -441 -42
-21 10 -62 27 -90 36 -28 9 -60 23 -70 31 -11 8 10 4 49 -10 37 -13 67 -20 67
-14 0 5 -7 12 -16 16 -8 3 -13 12 -10 20 4 10 0 13 -16 11 -11 -2 -23 3 -25
10 -7 18 -3 18 175 -23 12 -3 22 -1 22 5 0 5 -8 10 -17 10 -10 0 -45 14 -78
30 -33 16 -65 30 -72 30 -6 0 -14 4 -17 8 -2 4 10 6 29 4 32 -4 77 12 73 26
-9 30 147 125 273 166 41 13 102 34 137 46 l62 22 -2 131 c-2 130 -2 131 -5
29 l-4 -104 -24 6 c-71 18 -273 -42 -385 -115 -81 -52 -172 -139 -165 -156 3
-9 0 -11 -7 -7 -8 5 -9 -4 -5 -34 6 -35 4 -42 -12 -47 -11 -3 -40 3 -65 15
-25 11 -49 20 -53 20 -4 0 -30 11 -58 24 l-50 24 -19 -34 c-23 -39 -31 -42
-48 -15 -9 15 -15 17 -25 9 -23 -19 -14 5 49 130 73 145 135 218 244 291 94
63 146 79 312 94 l132 11 0 93 0 93 -775 0 -775 0 0 -22 c0 -19 2 -20 10 -8 7
10 9 -3 8 -45 l-1 -60 -7 45 -7 45 -1 -47 c-1 -29 3 -48 11 -51 9 -3 9 -7 -1
-19 -17 -21 2 -28 73 -28 171 0 339 -94 373 -208 17 -57 14 -131 -7 -178 -24
-52 -29 -55 -85 -48 l-46 7 30 34 c17 18 30 36 30 40 0 3 -17 -13 -37 -36
l-38 -42 -135 16 c-84 10 -261 18 -465 22 -318 5 -331 6 -353 26 -19 18 -22
18 -16 4 10 -27 -67 -24 -92 4 -29 32 -26 131 6 194 48 94 169 154 327 162
l91 5 -3 52 c-1 28 -3 70 -4 94 l-1 42 -1024 0 c-564 0 -1027 -3 -1029 -7z
m443 -81 c0 -15 61 -45 72 -34 7 7 0 12 -21 17 -55 12 -44 25 21 25 53 0 70
-5 98 -25 19 -14 36 -25 39 -24 3 0 -4 7 -16 16 -13 8 -23 20 -23 24 0 6 99 9
230 8 175 -1 234 -5 247 -15 24 -18 38 -18 23 1 -11 13 -8 15 19 15 17 0 31
-2 31 -4 0 -2 3 -12 7 -21 5 -14 2 -16 -13 -11 -10 3 -26 1 -34 -5 -13 -10
-13 -10 1 -6 9 3 22 1 30 -4 8 -5 -78 -9 -217 -9 l-230 0 -23 26 c-12 14 -25
23 -29 19 -4 -3 4 -15 18 -26 25 -19 24 -19 -230 -18 -205 2 -259 5 -277 17
-13 8 -23 21 -23 28 0 11 29 14 150 14 83 0 150 -4 150 -8z m777 2 c12 -3 25
-15 29 -26 4 -14 9 -17 17 -9 7 7 6 15 -2 25 -11 13 -3 15 67 15 69 0 83 -3
99 -21 10 -12 12 -18 4 -13 -21 12 -91 16 -91 5 0 -11 1 -11 73 -13 26 -1 47
-5 47 -9 0 -3 -52 -6 -115 -7 -104 0 -117 2 -128 20 -6 10 -17 19 -24 19 -7 0
-13 5 -13 10 0 11 6 12 37 4z m368 -5 c4 -5 11 -9 16 -9 6 0 7 5 4 10 -4 6 7
10 24 10 17 0 31 -4 31 -10 0 -5 -11 -10 -25 -10 -14 0 -25 -5 -25 -10 0 -6
-14 -3 -31 6 -30 15 -32 15 -25 -1 5 -14 3 -15 -6 -8 -16 13 -80 15 -73 2 4
-5 16 -9 28 -10 12 0 31 -4 42 -9 15 -6 9 -9 -25 -9 -37 0 -49 5 -66 27 l-22
28 74 1 c41 1 76 -3 79 -8z m115 -9 c0 -11 -4 -20 -10 -20 -5 0 -10 9 -10 20
0 11 5 20 10 20 6 0 10 -9 10 -20z m118 2 c3 -11 0 -12 -17 -3 -17 10 -22 9
-27 -4 -3 -8 -10 -12 -15 -9 -5 3 -6 10 -3 16 4 7 2 8 -4 4 -7 -4 -20 -2 -29
4 -14 8 -6 9 36 8 35 -2 56 -8 59 -16z m42 2 c0 -8 -4 -12 -10 -9 -5 3 -10 10
-10 16 0 5 5 9 10 9 6 0 10 -7 10 -16z m80 1 c-12 -15 -30 -12 -30 6 0 5 10 9
21 9 18 0 19 -2 9 -15z m897 -2 c3 -8 1 -19 -4 -24 -14 -14 -293 -13 -307 1
-8 8 -6 9 9 5 19 -6 19 -6 3 8 -10 8 -18 17 -18 20 0 4 70 6 156 5 124 -1 157
-4 161 -15z m171 -10 c2 -13 11 -23 20 -24 10 -1 7 -4 -8 -8 -14 -4 -27 -4
-28 1 -2 4 -9 5 -15 1 -6 -4 -8 0 -4 10 4 10 1 17 -6 18 -7 0 -22 2 -34 3 -13
2 -23 -1 -23 -6 0 -4 12 -8 27 -8 50 0 13 -14 -42 -15 -50 -2 -54 0 -41 14 7
9 11 21 9 28 -3 9 16 11 69 10 67 -2 73 -4 76 -24z m65 9 c-2 -6 3 -12 11 -12
7 0 19 -7 26 -15 11 -13 10 -15 -6 -9 -16 5 -16 4 -4 -5 18 -13 57 -14 64 -2
4 5 -4 7 -16 4 -22 -5 -22 -5 -4 9 10 8 16 21 13 29 -4 10 -6 9 -6 -3 -1 -10
-7 -18 -13 -18 -13 1 -48 23 -48 31 0 2 37 4 83 4 79 0 82 -1 80 -22 -2 -13 1
-23 6 -23 11 0 23 29 17 39 -3 4 65 8 150 9 85 1 154 -2 154 -6 0 -5 -16 -7
-35 -6 -19 2 -37 -1 -40 -6 -4 -6 2 -7 12 -3 40 14 -4 -16 -52 -36 -43 -18
-47 -19 -30 -4 26 23 21 56 -7 47 -31 -10 -68 -12 -73 -4 -6 9 -65 0 -65 -10
0 -5 6 -10 13 -13 6 -2 4 -3 -5 -2 -9 2 -25 -6 -34 -16 -15 -16 -32 -19 -122
-19 -94 0 -104 2 -86 14 19 14 19 15 -1 23 -28 11 -30 45 -1 41 11 -2 20 -9
19 -16z m632 2 c-11 -8 -29 -13 -39 -10 -11 3 -26 0 -33 -6 -10 -8 -13 -6 -13
6 0 10 -4 15 -9 11 -5 -3 -12 -1 -16 5 -4 6 18 10 62 10 63 -1 67 -2 48 -16z
m36 -3 c-18 -14 -21 -20 -10 -24 10 -4 9 -6 -3 -6 -10 -1 -18 2 -18 6 0 11 33
43 44 43 6 0 0 -9 -13 -19z m89 9 c0 -6 -7 -13 -16 -17 -13 -5 -13 -7 -2 -14
10 -7 9 -9 -4 -9 -10 0 -18 7 -18 15 0 9 -6 12 -17 9 -15 -5 -15 -3 1 10 22
18 56 21 56 6z m-1930 -10 c0 -5 -4 -10 -10 -10 -5 0 -10 5 -10 10 0 6 5 10
10 10 6 0 10 -4 10 -10z m1512 -37 c-13 -13 -28 -23 -34 -23 -7 0 -3 7 8 15
23 18 2 20 -29 3 -12 -7 -33 -13 -47 -15 -23 -2 -23 -1 5 12 17 8 26 14 22 15
-5 0 -6 3 -4 8 3 4 27 7 54 7 l48 0 -23 -22z m148 22 c0 -6 -56 -35 -67 -35
-9 0 48 38 60 39 4 1 7 -1 7 -4z m50 -11 c0 -8 -4 -12 -10 -9 -5 3 -20 1 -32
-5 -21 -10 -21 -10 2 9 30 25 40 26 40 5z m-2415 -4 c3 -5 -1 -10 -9 -10 -9 0
-16 5 -16 10 0 6 4 10 9 10 6 0 13 -4 16 -10z m440 0 c4 -6 -9 -10 -32 -9 -34
1 -35 2 -13 9 35 11 38 11 45 0z m82 -3 c3 -4 -8 -7 -25 -7 -17 0 -34 4 -37
10 -7 11 51 8 62 -3z m133 3 c11 -7 4 -10 -25 -9 -31 0 -36 2 -20 9 26 11 28
11 45 0z m1849 -4 c-2 -2 -22 -6 -44 -9 l-40 -6 40 13 c35 12 56 13 44 2z m78
8 c-3 -3 -12 -4 -19 -1 -8 3 -5 6 6 6 11 1 17 -2 13 -5z m-3602 -20 c20 -15
20 -16 -4 -12 -14 2 -26 9 -29 16 -5 16 9 15 33 -4z m1588 9 c-7 -2 -19 -2
-25 0 -7 3 -2 5 12 5 14 0 19 -2 13 -5z m-1483 -38 c0 -8 6 -12 13 -9 8 3 14
-2 14 -10 0 -13 -4 -13 -28 0 -36 18 -45 34 -20 34 12 0 21 -7 21 -15z m286
-32 c33 -18 68 -33 77 -33 9 0 28 -11 43 -25 32 -30 18 -34 -16 -5 -13 11 -31
20 -42 20 -20 0 -25 2 -104 43 -29 15 -69 27 -90 28 -22 0 -48 4 -59 9 -12 5
9 6 55 3 59 -5 88 -13 136 -40z m1200 30 c-14 -8 -31 -11 -36 -8 -17 11 -3 20
31 21 l32 1 -27 -14z m-1132 -18 c15 -14 32 -25 37 -25 6 0 22 -9 36 -20 43
-33 50 -22 10 15 -20 19 -47 35 -59 35 -47 0 -3 15 50 17 55 2 79 -6 113 -39
25 -24 94 -65 119 -71 14 -3 34 -13 45 -22 19 -16 19 -16 -5 -10 -39 11 -155
68 -170 86 -12 13 -94 48 -103 42 -9 -6 2 -13 101 -64 43 -22 59 -35 50 -40
-19 -13 -51 -11 -73 4 -11 7 -30 14 -42 15 -13 0 -38 12 -56 26 -19 14 -40 26
-48 26 -8 0 -32 11 -54 25 l-40 24 31 1 c20 0 41 -9 58 -25z m201 15 c4 -6 16
-8 27 -4 13 4 18 2 14 -4 -7 -12 21 -24 37 -16 7 3 3 -2 -7 -10 -23 -18 -36
-20 -36 -6 0 6 -5 10 -11 10 -6 0 -22 9 -36 20 -18 14 -21 20 -10 20 9 0 19
-5 22 -10z m228 -45 c25 -22 58 -48 72 -58 15 -11 24 -22 21 -25 -4 -3 -16 4
-29 16 -13 12 -31 22 -40 22 -9 0 -17 7 -17 15 0 11 -7 14 -23 11 -25 -4 -120
34 -100 41 6 2 23 -3 37 -12 14 -9 35 -15 48 -13 25 5 28 3 -44 30 -15 6 -26
14 -23 18 9 15 53 -5 98 -45z m47 30 c8 -7 33 -22 55 -34 22 -12 31 -19 20
-15 -11 4 -42 15 -68 24 -27 10 -56 24 -64 33 -13 13 -12 14 14 9 15 -2 35
-10 43 -17z m65 -1 c30 -26 23 -27 -27 -2 -16 7 -28 16 -28 21 0 15 26 6 55
-19z m180 -5 l20 -21 -39 16 c-22 9 -47 14 -57 11 -10 -4 -27 -1 -36 5 -15 9
-14 10 10 5 17 -3 27 -1 27 6 0 17 51 1 75 -22z m275 27 c0 -11 -19 -15 -25
-6 -3 5 1 10 9 10 9 0 16 -2 16 -4z m-1255 -16 c3 -5 -1 -10 -9 -10 -8 0 -18
5 -21 10 -3 6 1 10 9 10 8 0 18 -4 21 -10z m839 1 c4 -5 -3 -7 -14 -4 -23 6
-26 13 -6 13 8 0 17 -4 20 -9z m261 -29 c28 -19 52 -39 53 -44 2 -4 10 -8 18
-8 8 0 14 -5 14 -11 0 -6 10 -8 23 -5 12 3 16 3 9 0 -6 -3 -10 -10 -6 -15 8
-14 -5 -11 -45 10 -20 10 -50 24 -68 31 -21 8 -30 17 -26 26 3 8 0 14 -7 14
-6 0 -8 5 -4 11 5 8 -1 10 -20 7 -14 -3 -34 1 -43 8 -16 11 -14 13 17 12 23 0
52 -12 85 -36z m52 31 l-38 -4 23 -20 23 -19 -32 17 c-45 25 -41 33 15 31 44
-1 44 -2 9 -5z m106 -17 c8 3 18 1 22 -5 3 -7 0 -8 -10 -5 -11 5 -14 2 -9 -12
6 -16 2 -15 -22 6 -47 40 -51 45 -22 27 15 -9 33 -14 41 -11z m-1163 -1 c42
-12 115 -48 102 -53 -6 -2 -26 3 -44 11 -18 8 -49 20 -68 27 -40 15 -67 35
-35 27 11 -3 31 -8 45 -12z m2308 -5 c7 -11 8 -20 2 -20 -5 0 -14 9 -20 20 -6
11 -7 20 -3 20 5 0 14 -9 21 -20z m126 11 c3 -5 -6 -8 -20 -8 -19 0 -22 2 -13
8 18 11 26 11 33 0z m129 2 c-7 -2 -19 -2 -25 0 -7 3 -2 5 12 5 14 0 19 -2 13
-5z m77 1 c0 -1 -13 -6 -28 -12 -21 -7 -29 -7 -29 2 0 7 13 13 29 13 15 0 28
-1 28 -3z m25 -10 c-11 -9 -33 -23 -50 -31 -28 -15 -29 -15 -16 0 7 10 19 17
26 17 7 0 18 7 25 15 7 8 18 15 24 15 6 0 2 -8 -9 -16z m75 6 c0 -5 -5 -10
-10 -10 -6 0 -22 -7 -36 -17 -19 -12 -22 -18 -12 -25 9 -7 8 -8 -5 -4 -24 8
-44 -3 -27 -14 9 -6 7 -11 -7 -18 -16 -9 -19 -8 -18 9 1 11 22 34 51 53 53 37
64 41 64 26z m40 6 c0 -2 -7 -9 -15 -16 -13 -11 -14 -10 -9 4 5 14 24 23 24
12z m40 -5 c0 -5 -15 -19 -34 -32 -19 -13 -33 -26 -31 -29 2 -3 -8 -6 -21 -6
-33 -2 -30 2 12 22 20 9 41 25 47 36 12 19 27 24 27 9z m-1681 -35 c21 -25 3
-38 -24 -19 -30 22 -35 59 -7 44 10 -5 24 -17 31 -25z m1721 4 c-14 -11 -31
-20 -39 -20 -11 0 -9 4 5 15 10 8 25 15 32 15 6 0 12 5 12 12 0 6 3 8 7 4 4
-4 -3 -16 -17 -26z m-2090 9 c0 -6 8 -8 19 -4 11 3 22 1 26 -5 3 -5 0 -10 -7
-10 -9 0 -9 -3 2 -10 8 -5 20 -10 25 -10 6 0 3 5 -5 10 -10 7 -11 10 -2 10 7
0 15 -7 18 -15 4 -8 12 -15 20 -15 8 0 14 -4 14 -8 0 -8 64 -42 78 -42 4 0 -2
7 -12 15 -11 8 -16 15 -10 15 5 0 20 -9 34 -20 22 -17 23 -19 7 -25 -10 -4
-28 0 -42 9 -13 9 -29 16 -34 16 -5 0 -37 16 -71 35 -34 19 -67 32 -73 28 -7
-3 -9 -3 -5 2 4 4 3 14 -3 22 -9 10 -8 13 5 13 9 0 16 -5 16 -11z m117 -10
c29 -11 36 -25 13 -26 -10 -1 -24 5 -31 13 -6 8 -17 14 -25 14 -7 0 -16 5 -20
11 -6 11 10 8 63 -12z m1633 11 c0 -5 -5 -10 -11 -10 -5 0 -7 5 -4 10 3 6 8
10 11 10 2 0 4 -4 4 -10z m-2562 -20 c11 -12 39 -29 63 -39 65 -26 308 -142
327 -156 10 -8 -14 -35 -31 -35 -29 0 -127 33 -127 43 0 10 33 1 72 -19 15 -8
37 -14 50 -13 l23 0 -24 16 c-13 9 -31 18 -40 20 -78 13 -101 24 -174 84 -18
15 -58 38 -89 53 -32 14 -58 30 -58 36 0 5 -7 10 -15 10 -8 0 -15 5 -15 10 0
16 18 11 38 -10z m2612 15 c0 -2 -10 -9 -22 -15 -22 -11 -22 -10 -4 4 21 17
26 19 26 11z m389 1 c-2 -2 -15 -9 -29 -15 -24 -11 -24 -11 -6 3 16 13 49 24
35 12z m-2471 -16 c12 0 31 -9 42 -20 11 -11 39 -23 62 -26 24 -2 53 -12 66
-20 12 -8 26 -12 31 -9 5 2 20 -4 32 -14 l24 -20 -38 3 c-24 2 -36 -1 -34 -8
5 -16 68 -45 100 -46 16 0 41 -10 55 -21 l27 -21 -32 7 c-21 4 -33 3 -33 -4 0
-6 8 -11 18 -12 11 0 12 -2 4 -6 -15 -6 -44 16 -36 28 3 5 -3 12 -13 15 -41
14 -81 35 -93 49 -12 15 -58 38 -182 94 -66 29 -91 49 -45 37 12 -3 32 -6 45
-6z m181 -8 c22 -10 38 -22 34 -25 -3 -4 3 -7 14 -7 12 0 23 -8 26 -20 3 -11
10 -20 16 -20 14 0 14 17 1 25 -5 3 -10 11 -10 17 0 6 6 5 16 -3 8 -7 13 -21
11 -31 -5 -16 4 -23 27 -19 13 3 36 -20 30 -30 -3 -5 3 -9 13 -9 14 0 15 -2 4
-9 -14 -9 -85 33 -138 82 -12 11 -39 30 -60 43 -46 28 -40 30 16 6z m-639 -14
c0 -5 -9 -4 -20 2 -11 6 -20 12 -20 14 0 2 9 2 20 -1 11 -3 20 -9 20 -15z
m2950 18 c0 -2 -7 -7 -16 -10 -8 -3 -12 -2 -9 4 6 10 25 14 25 6z m-2854 -50
c38 -18 87 -42 109 -52 22 -10 44 -20 49 -22 5 -3 6 1 2 7 -4 7 -42 29 -84 49
-58 28 -71 38 -53 40 12 2 31 -4 41 -13 10 -9 27 -16 37 -15 24 3 63 -10 63
-20 0 -12 91 -61 104 -57 13 4 -53 47 -71 47 -7 0 -13 4 -13 9 0 4 11 6 24 4
12 -3 40 0 61 6 23 6 43 7 49 2 21 -18 88 -24 97 -10 4 7 11 10 16 6 4 -5 1
-12 -6 -16 -9 -6 -10 -11 -2 -15 6 -4 11 -2 11 4 0 15 21 7 87 -32 32 -19 48
-35 41 -39 -7 -4 1 -13 21 -23 17 -9 29 -21 26 -25 -3 -5 3 -7 14 -4 11 3 21
-2 24 -11 10 -26 -31 -19 -60 11 -17 16 -40 27 -61 29 -38 3 -34 -6 13 -30 24
-13 26 -16 10 -16 -12 0 -36 13 -55 30 -19 16 -41 29 -49 30 -22 0 -142 81
-135 91 3 5 -3 6 -12 2 -15 -5 -13 -9 10 -28 25 -20 27 -24 15 -44 -16 -25
-22 -26 -39 -6 -7 8 -23 15 -36 15 -12 0 -35 5 -51 11 -17 6 -29 7 -31 1 -3
-9 -190 78 -232 107 -29 20 -2 11 66 -23z m849 14 c17 -11 24 -20 17 -20 -8 0
-25 9 -39 20 -33 26 -17 26 22 0z m1630 1 c-6 -11 -65 -42 -65 -35 0 4 62 44
68 44 2 0 1 -4 -3 -9z m320 -1 c-3 -5 -16 -15 -28 -21 l-22 -12 20 21 c21 22
41 30 30 12z m-435 -7 c-8 -3 -23 -12 -32 -21 -19 -16 -22 -13 -12 12 4 9 17
16 33 15 15 0 20 -3 11 -6z m295 -3 c-3 -5 -13 -10 -21 -10 -8 0 -12 5 -9 10
3 6 13 10 21 10 8 0 12 -4 9 -10z m60 -20 c-10 -11 -23 -20 -29 -20 -6 0 0 9
14 20 32 25 38 25 15 0z m-1995 -20 c14 -11 20 -20 13 -20 -6 0 -15 5 -18 11
-4 6 -17 14 -29 19 -12 5 -15 9 -6 9 8 0 26 -8 40 -19z m241 2 c-7 -2 -18 1
-23 6 -8 8 -4 9 13 5 13 -4 18 -8 10 -11z m1386 0 c-10 -10 -14 -23 -10 -28 4
-5 1 -3 -7 4 -13 12 -13 15 4 28 27 19 32 18 13 -4z m193 -12 c-19 -16 -44
-30 -55 -30 -17 0 -15 3 7 14 15 8 38 22 50 30 37 26 36 18 -2 -14z m90 22 c0
-4 -13 -16 -30 -25 -16 -10 -30 -15 -30 -10 0 4 12 15 28 25 33 20 32 20 32
10z m-1710 -17 c0 -1 -9 -5 -19 -8 -13 -3 -18 -1 -14 9 4 10 33 10 33 -1z
m-118 -15 c32 -19 32 -20 8 -20 -14 0 -31 9 -38 20 -15 25 -11 25 30 0z m1638
10 c0 -5 -4 -10 -10 -10 -5 0 -10 5 -10 10 0 6 5 10 10 10 6 0 10 -4 10 -10z
m-1485 -17 c-3 -8 -5 -19 -5 -24 0 -5 -5 -9 -11 -9 -6 0 -8 9 -4 20 5 16 3 19
-12 14 -13 -4 -14 -3 -5 3 20 15 44 12 37 -4z m1705 12 c0 -2 -18 -14 -41 -26
-23 -11 -38 -16 -34 -9 3 6 21 17 38 24 40 18 37 17 37 11z m35 -15 c-10 -11
-20 -18 -23 -15 -7 6 18 35 31 35 5 0 2 -9 -8 -20z m1715 5 c-7 -8 -17 -15
-22 -15 -6 0 -5 7 2 15 7 8 17 15 22 15 6 0 5 -7 -2 -15z m-2020 1 c0 -2 -8
-10 -17 -17 -16 -13 -17 -12 -4 4 13 16 21 21 21 13z m-1754 -21 c18 -14 17
-15 -11 -9 -37 8 -57 24 -29 24 11 0 29 -7 40 -15z m119 6 c3 -5 1 -12 -5 -16
-5 -3 -10 1 -10 9 0 18 6 21 15 7z m155 -15 c0 -2 -9 -2 -20 1 -11 3 -20 9
-20 15 0 5 9 4 20 -2 11 -6 20 -12 20 -14z m1650 10 c0 -2 -9 -6 -20 -9 -11
-3 -18 -1 -14 4 5 9 34 13 34 5z m-96 -21 c-4 -8 -11 -12 -16 -9 -6 4 -5 10 3
15 19 12 19 11 13 -6z m-2204 -45 c55 -42 69 -45 26 -6 -46 42 -38 46 19 11
51 -31 65 -32 35 0 -37 40 -1 44 54 5 28 -19 43 -25 40 -15 -5 11 -2 14 10 9
9 -3 16 -10 16 -15 0 -5 15 -17 34 -26 19 -9 37 -24 39 -34 6 -21 5 -21 -17
-13 -8 3 -12 12 -10 19 4 10 -1 12 -15 8 -12 -3 -21 -8 -21 -12 0 -9 -99 3
-165 19 -51 13 -102 40 -76 40 11 0 9 5 -4 20 -10 11 -24 20 -32 20 -7 0 -13
5 -13 10 0 13 32 -3 80 -40z m555 40 c3 -5 1 -10 -4 -10 -6 0 -11 5 -11 10 0
6 2 10 4 10 3 0 8 -4 11 -10z m-65 -10 c0 -5 -2 -10 -4 -10 -3 0 -8 5 -11 10
-3 6 -1 10 4 10 6 0 11 -4 11 -10z m1620 -19 c-6 -12 -15 -21 -21 -21 -10 0
-5 13 14 38 15 19 20 7 7 -17z m-1501 -4 c0 -9 -2 -8 -6 1 -2 6 -10 9 -15 6
-7 -4 -8 -2 -4 5 9 13 26 5 25 -12z m1631 13 c0 -5 -15 -17 -32 -26 l-33 -16
30 26 c34 29 35 29 35 16z m-2362 -55 c18 -6 30 -14 26 -17 -3 -3 0 -9 7 -14
8 -4 10 -3 5 4 -5 8 2 12 20 12 41 0 144 -23 144 -32 0 -4 -6 -5 -13 -2 -7 2
-26 -2 -41 -9 -26 -14 -26 -15 -5 -20 12 -3 32 1 45 10 20 13 27 13 40 3 12
-11 12 -15 2 -22 -9 -6 -6 -7 8 -3 14 3 30 -3 49 -21 29 -27 65 -44 93 -44 9
0 -5 13 -33 30 -27 16 -61 38 -75 49 l-25 21 54 0 c47 0 65 -6 124 -42 48 -29
64 -44 55 -49 -22 -14 -35 -10 -66 21 -17 17 -27 30 -24 30 4 0 -6 7 -22 15
-35 19 -36 19 -36 0 0 -9 8 -19 18 -22 9 -4 27 -14 39 -23 21 -16 21 -18 5
-32 -17 -15 -263 -88 -295 -88 -9 0 -17 6 -17 13 0 8 14 13 38 13 40 1 150 30
168 45 6 5 20 6 30 3 11 -4 4 5 -15 20 -19 14 -38 32 -43 38 -5 9 -8 8 -8 -5
0 -10 10 -22 23 -27 l22 -9 -22 0 c-12 -1 -26 5 -30 13 -4 7 -18 18 -30 25
-31 16 -113 30 -113 20 0 -5 5 -9 10 -9 30 0 62 -18 55 -31 -4 -5 -1 -9 4 -9
6 0 11 5 11 10 0 17 26 11 45 -10 10 -11 25 -20 34 -20 13 0 13 -2 2 -9 -19
-12 -51 -2 -44 15 7 19 -7 18 -22 -3 -11 -15 -18 -12 -67 30 -61 52 -76 59
-53 24 8 -13 12 -27 8 -31 -4 -4 0 -4 10 0 21 8 50 -14 43 -33 -4 -8 2 -13 17
-13 17 -1 19 -2 7 -9 -22 -12 -98 -1 -104 15 -3 8 -1 14 4 14 6 0 10 -4 10
-10 0 -5 5 -10 10 -10 20 0 10 21 -15 30 -22 8 -37 28 -87 110 -8 14 -15 28
-14 32 1 4 -8 14 -19 23 l-20 17 20 -8 c11 -3 35 -12 53 -19z m652 0 c0 -8 -5
-15 -11 -15 -5 0 -7 5 -4 10 3 6 2 10 -4 10 -5 0 -13 -4 -16 -10 -3 -5 -11
-10 -18 -10 -15 0 25 29 41 30 6 0 12 -7 12 -15z m1573 -15 c-9 -11 -19 -17
-21 -15 -6 6 18 35 29 35 5 0 1 -9 -8 -20z m-1542 -7 c12 -14 12 -16 0 -8 -11
6 -13 4 -8 -9 4 -10 3 -15 -3 -11 -9 6 -15 45 -6 45 2 0 10 -8 17 -17z m-251
-13 c0 -5 -4 -10 -9 -10 -6 0 -13 5 -16 10 -3 6 1 10 9 10 9 0 16 -4 16 -10z
m163 -4 c16 -13 16 -14 1 -20 -9 -4 -19 -4 -22 -1 -3 3 1 5 8 5 11 0 11 3 2
12 -10 10 -15 10 -22 -2 -5 -8 -10 -10 -10 -4 0 25 17 29 43 10z m-133 -12 c0
-3 -6 -11 -13 -18 -10 -11 -15 -10 -27 2 -13 14 -12 15 3 9 9 -3 17 -2 17 3 0
6 5 10 10 10 6 0 10 -3 10 -6z m1839 4 c-2 -2 -17 -14 -34 -28 l-30 -25 24 28
c14 15 29 27 34 27 6 0 8 -1 6 -2z m-1769 -28 c16 -13 20 -20 10 -19 -16 0
-50 22 -50 33 0 11 14 6 40 -14z m206 -8 c-4 -3 -14 2 -24 12 -16 18 -16 18 6
6 13 -6 21 -14 18 -18z m-226 -24 c0 -11 -4 -10 -34 5 -14 8 -23 16 -20 19 6
7 54 -15 54 -24z m263 17 c-3 -9 -8 -14 -10 -11 -3 3 -2 9 2 15 9 16 15 13 8
-4z m1607 -10 c-7 -8 -17 -15 -22 -15 -6 0 -5 7 2 15 7 8 17 15 22 15 6 0 5
-7 -2 -15z m-160 -9 c0 -2 -7 -7 -16 -10 -8 -3 -12 -2 -9 4 6 10 25 14 25 6z
m90 -50 c0 -2 -8 -10 -17 -17 -16 -13 -17 -12 -4 4 13 16 21 21 21 13z m80
-40 c0 -2 -7 -7 -16 -10 -8 -3 -12 -2 -9 4 6 10 25 14 25 6z m458 -211 c-6 -6
-58 8 -58 16 0 4 14 3 31 -3 16 -6 29 -12 27 -13z m-3498 -429 c0 -2 -8 -10
-17 -17 -16 -13 -17 -12 -4 4 13 16 21 21 21 13z m3690 -88 c0 -6 -7 -5 -15 2
-8 7 -15 17 -15 22 0 6 7 5 15 -2 8 -7 15 -17 15 -22z m-1494 -164 c21 -46 41
-84 44 -84 3 0 23 35 45 78 39 75 41 77 74 74 19 -1 37 -4 39 -6 2 -3 -28 -72
-67 -155 -39 -83 -71 -155 -71 -161 0 -28 -22 -2 -60 73 -24 45 -65 121 -92
170 -26 48 -48 90 -48 95 0 4 22 5 49 4 l49 -4 38 -84z m-778 41 c3 -19 2 -19
-9 -2 -8 14 -18 17 -36 12 -17 -4 -22 -2 -18 5 12 19 59 7 63 -15z m52 -7 c0
-6 -7 -5 -15 2 -8 7 -15 17 -15 22 0 6 7 5 15 -2 8 -7 15 -17 15 -22z m-256
-13 c-8 -19 22 -65 41 -65 8 0 15 5 15 11 0 15 -26 39 -34 32 -3 -4 -6 1 -6
10 0 24 12 21 34 -9 15 -21 16 -30 7 -50 -16 -35 -14 -51 4 -28 13 17 14 17
15 2 0 -10 -4 -18 -10 -18 -5 0 -10 -5 -10 -11 0 -6 6 -9 14 -6 10 4 15 -4 19
-26 2 -18 4 -33 3 -34 -4 -4 -116 186 -116 196 0 6 7 11 15 11 9 0 12 -6 9
-15z m184 -6 c11 -18 16 -19 30 -7 16 12 16 11 2 -7 -8 -11 -15 -21 -16 -23
-1 -2 -12 11 -24 27 -12 17 -18 31 -13 31 4 0 14 -9 21 -21z m-88 -20 c0 -6
-4 -7 -10 -4 -5 3 -10 11 -10 16 0 6 5 7 10 4 6 -3 10 -11 10 -16z m228 -4
c-3 -3 -9 2 -12 12 -6 14 -5 15 5 6 7 -7 10 -15 7 -18z m-194 -1 c5 -14 4 -15
-9 -4 -17 14 -19 20 -6 20 5 0 12 -7 15 -16z m66 -36 c0 -14 -19 1 -31 25 -12
22 -12 22 10 3 11 -11 21 -23 21 -28z m124 -7 c-7 -7 -34 21 -34 36 0 10 6 8
19 -8 11 -13 18 -26 15 -28z m-1279 31 c-39 -33 -95 -72 -95 -65 1 10 81 73
95 73 5 0 5 -3 0 -8z m1085 -23 c0 -6 -4 -7 -10 -4 -5 3 -10 11 -10 16 0 6 5
7 10 4 6 -3 10 -11 10 -16z m308 -4 c-3 -3 -9 2 -12 12 -6 14 -5 15 5 6 7 -7
10 -15 7 -18z m46 -2 c-7 -16 -14 -35 -14 -43 0 -13 -2 -13 -9 -1 -7 10 -3 24
10 43 26 36 32 36 13 1z m-196 -48 c-9 -20 -14 -22 -25 -13 -29 24 -36 49 -16
64 16 12 20 11 35 -7 14 -16 15 -25 6 -44z m332 58 c0 -5 -10 -19 -21 -33
l-21 -25 18 33 c18 32 24 38 24 25z m-965 -23 c25 -11 -1 -11 -35 0 -20 6 -21
8 -5 8 11 0 29 -3 40 -8z m466 -73 c-6 -6 -11 -7 -12 -1 -1 13 -6 38 -13 65
-4 14 3 7 15 -15 15 -27 18 -41 10 -49z m23 71 c-6 -10 -5 -10 7 -1 8 7 20 8
28 4 10 -7 9 -15 -5 -42 -11 -19 -19 -38 -19 -44 -1 -5 -7 -21 -14 -34 -9 -17
-10 -26 -2 -34 8 -8 11 -7 11 2 0 8 6 11 18 6 14 -5 15 -4 5 6 -7 7 -13 18
-13 23 0 6 7 0 16 -12 19 -28 12 -54 -13 -45 -15 6 -16 5 -3 -9 11 -11 17 -13
23 -4 5 6 6 -1 3 -16 -3 -15 -1 -30 4 -33 6 -4 8 -11 5 -16 -4 -5 -1 -9 5 -9
7 0 10 6 7 14 -3 8 1 17 10 20 9 4 13 9 10 13 -4 3 -13 0 -22 -7 -19 -16 -20
-3 -1 15 12 12 18 9 44 -19 16 -18 33 -44 36 -57 7 -23 7 -23 -8 -4 -30 39
-37 45 -47 39 -5 -3 2 -19 16 -36 29 -34 32 -60 10 -78 -13 -11 -14 -10 -9 5
5 13 4 16 -4 11 -7 -4 -15 0 -19 11 -4 10 -29 56 -57 103 -53 91 -58 117 -26
157 11 14 20 33 20 42 0 13 -2 13 -9 2 -6 -9 -10 -10 -16 -2 -7 12 0 41 10 41
4 0 3 -6 -1 -12z m1601 2 c-77 -14 -129 -21 -124 -15 9 8 89 23 129 23 l35 0
-40 -8z m-1215 -30 l22 -30 -25 -29 -24 -30 -14 27 c-21 43 -22 49 -2 20 l19
-27 18 20 c17 20 17 22 -3 43 -20 21 -27 36 -17 36 3 0 14 -14 26 -30z m831
-2 c-10 -11 -11 -9 -5 6 6 15 4 17 -6 11 -9 -6 -11 -4 -5 4 5 9 10 10 18 2 8
-8 7 -14 -2 -23z m-1657 16 c35 -13 12 -19 -65 -16 -90 4 -123 -2 -99 -19 11
-8 8 -9 -12 -5 -16 4 -28 2 -28 -4 0 -5 5 -10 12 -10 23 0 95 -41 119 -68 17
-19 18 -22 4 -11 -33 26 -116 69 -134 69 -8 0 9 -17 39 -37 72 -48 163 -122
174 -141 10 -17 0 -12 -49 24 -36 26 -75 47 -75 39 0 -2 19 -17 42 -32 43 -29
107 -92 108 -106 0 -4 -15 3 -33 17 -38 29 -87 50 -87 36 0 -5 10 -14 21 -21
12 -6 63 -42 113 -81 53 -40 109 -74 134 -81 23 -6 42 -15 42 -20 0 -5 -10 -7
-22 -3 -13 3 -31 6 -40 6 -9 0 -47 21 -84 46 -138 94 -313 151 -439 141 -78
-6 -183 -38 -230 -70 l-30 -20 30 32 c64 70 290 106 424 67 30 -8 49 -10 44
-5 -19 19 -175 59 -227 59 -28 0 -71 -5 -96 -11 -25 -6 -53 -12 -63 -14 -9 -2
-23 -7 -30 -10 -6 -4 -3 1 8 9 34 28 97 40 213 41 61 0 112 1 112 2 0 1 -14
10 -32 19 -27 14 -50 16 -135 10 -57 -3 -120 -13 -140 -21 -44 -18 -56 -12
-16 8 43 22 105 38 96 25 -4 -8 0 -9 13 -3 39 16 120 24 151 16 38 -11 44 2
11 20 -20 11 -153 8 -225 -6 -16 -2 -8 2 17 10 25 8 82 18 127 22 50 3 80 10
76 16 -5 9 -88 5 -143 -8 -51 -12 13 13 90 35 41 12 98 28 125 36 28 8 77 15
110 17 33 2 61 4 62 5 1 1 8 -1 17 -4z m664 -51 c-2 -10 -10 -1 -21 23 l-19
39 22 -23 c12 -12 20 -30 18 -39z m40 21 c-10 -10 -28 6 -28 24 0 15 1 15 17
-1 9 -9 14 -19 11 -23z m903 13 c-10 -9 -11 -8 -5 6 3 10 9 15 12 12 3 -3 0
-11 -7 -18z m8 -63 c-34 -66 -44 -65 -14 2 14 31 25 59 26 63 0 3 3 0 6 -6 2
-7 -6 -33 -18 -59z m-1005 45 c-3 -6 -1 -15 6 -19 8 -5 9 -13 3 -24 -8 -15
-11 -16 -22 -2 -9 11 -10 20 -1 35 6 12 13 21 16 21 3 0 2 -5 -2 -11z m-93
-18 c20 -18 18 -48 -2 -36 -5 3 -6 -1 -3 -9 9 -22 -13 -20 -25 2 -9 17 -5 62
6 62 2 0 13 -9 24 -19z m188 -7 c-10 -13 -10 -17 2 -26 11 -8 10 -9 -4 -4 -10
3 -21 6 -24 6 -4 0 2 9 12 20 21 24 33 27 14 4z m260 -38 c-7 -20 -16 -36 -20
-36 -4 0 0 18 9 39 21 48 29 46 11 -3z m-195 -23 c5 -15 2 -31 -8 -45 -13 -18
-16 -19 -16 -5 0 9 5 17 10 17 6 0 10 7 10 17 0 15 -1 15 -19 -1 -14 -13 -20
-14 -28 -4 -20 27 -21 34 -3 35 14 1 17 -3 13 -15 -6 -15 -5 -15 10 -3 12 10
14 18 7 31 -6 10 -10 22 -10 27 0 12 27 -30 34 -54z m-104 -9 c0 -22 -38 -77
-41 -59 -8 54 -7 80 2 97 10 19 11 19 24 1 8 -10 15 -28 15 -39z m176 30 c-9
-8 -16 -20 -16 -26 0 -6 -3 -9 -6 -6 -8 9 14 48 27 48 6 0 3 -7 -5 -16z m221
-50 c-3 -3 -13 8 -21 25 -23 43 -19 52 5 13 12 -18 19 -35 16 -38z m-467 35
c17 -30 6 -34 -14 -4 -9 14 -12 25 -7 25 6 0 15 -9 21 -21z m405 11 c3 -5 1
-10 -4 -10 -6 0 -11 5 -11 10 0 6 2 10 4 10 3 0 8 -4 11 -10z m114 -16 c-15
-18 -22 -13 -13 10 3 9 10 13 16 10 5 -3 4 -12 -3 -20z m71 -26 c0 -14 -25 14
-33 37 -6 17 -4 17 13 -4 11 -13 20 -28 20 -33z m431 29 c-10 -9 -11 -8 -5 6
3 10 9 15 12 12 3 -3 0 -11 -7 -18z m-1053 -11 c7 -17 7 -27 -1 -35 -16 -16
-25 -14 -37 10 -9 15 -8 24 1 35 16 20 24 18 37 -10z m-1417 -9 c-10 -9 -11
-8 -5 6 3 10 9 15 12 12 3 -3 0 -11 -7 -18z m1749 -10 c0 -5 -4 -5 -10 -2 -5
3 -10 14 -10 23 0 15 2 15 10 2 5 -8 10 -19 10 -23z m270 -34 c-1 -10 -39 39
-40 51 0 5 9 -3 20 -17 11 -14 20 -29 20 -34z m-430 -26 c0 -4 -12 5 -26 20
-23 26 -25 26 -19 5 5 -16 3 -22 -7 -20 -8 2 -13 -6 -13 -20 0 -12 5 -21 10
-20 5 2 9 9 7 16 -2 6 2 12 7 12 19 0 21 -19 4 -48 l-17 -29 -17 32 c-17 31
-17 34 4 77 l22 44 23 -30 c12 -16 22 -34 22 -39z m130 27 c0 -23 -15 -7 -25
26 -7 22 -6 23 9 8 9 -9 16 -25 16 -34z m-60 22 c0 -8 -7 -22 -15 -30 -13 -12
-14 -20 -5 -37 11 -19 13 -20 28 -6 13 13 13 19 2 32 -7 8 -10 18 -7 21 3 3
11 -4 17 -16 10 -18 9 -29 -6 -56 l-18 -33 -23 41 c-13 23 -20 44 -15 47 5 3
14 16 21 29 13 25 21 28 21 8z m135 -16 l20 -25 -21 18 c-21 17 -22 17 -43
-15 -14 -22 -21 -27 -21 -15 0 9 4 17 8 17 5 0 14 12 21 26 6 15 13 25 14 23
1 -2 11 -15 22 -29z m95 0 c0 -10 -4 -21 -9 -24 -4 -3 -8 8 -7 23 1 31 16 32
16 1z m53 10 c-3 -11 0 -27 7 -35 7 -9 10 -18 7 -21 -3 -3 -12 7 -21 24 -11
22 -12 32 -3 41 15 15 16 14 10 -9z m470 -10 c-3 -11 -9 -20 -15 -20 -5 0 -4
9 2 20 6 11 12 20 14 20 2 0 2 -9 -1 -20z m-933 -42 c0 -5 -4 -6 -10 -3 -6 3
-10 -4 -10 -17 0 -20 -3 -18 -26 16 -21 31 -24 40 -13 47 14 8 59 -25 59 -43z
m589 12 c11 -24 11 -24 -3 -6 -9 11 -16 24 -16 30 0 12 5 7 19 -24z m-399 -11
c0 -6 -4 -7 -10 -4 -5 3 -10 11 -10 16 0 6 5 7 10 4 6 -3 10 -11 10 -16z m108
-34 l-13 -25 -14 23 c-13 21 -13 21 4 7 17 -14 18 -13 12 3 -4 12 -3 16 4 11
8 -4 9 1 5 17 -6 20 -5 21 4 7 8 -13 7 -24 -2 -43z m82 34 c0 -6 -4 -7 -10 -4
-5 3 -10 11 -10 16 0 6 5 7 10 4 6 -3 10 -11 10 -16z m556 -23 c-17 -42 -21
-43 -36 -16 -6 12 -7 20 -1 20 5 0 11 -8 13 -17 3 -12 8 -5 17 20 7 21 15 36
18 34 2 -3 -3 -21 -11 -41z m-430 -13 c-11 -11 -17 4 -9 23 7 18 8 18 11 1 2
-10 1 -21 -2 -24z m74 12 c19 -36 8 -40 -12 -4 -9 16 -14 29 -9 29 4 0 14 -11
21 -25z m-220 -32 c0 -7 -4 -13 -9 -13 -16 0 -31 27 -25 45 7 17 8 17 21 -1 7
-10 13 -24 13 -31z m130 -8 c0 -11 -14 7 -31 40 -7 13 -3 12 10 -5 11 -14 21
-29 21 -35z m-1960 25 c-6 -11 -13 -20 -16 -20 -2 0 0 9 6 20 6 11 13 20 16
20 2 0 0 -9 -6 -20z m1898 -40 l16 -25 -22 22 c-12 12 -21 32 -21 45 1 20 2
20 6 3 3 -10 12 -31 21 -45z m-401 -12 c-7 -4 -8 -8 -4 -8 5 0 5 -6 0 -12 -8
-13 -9 -19 -12 -39 -1 -11 -51 55 -51 67 0 2 10 0 21 -7 16 -8 20 -8 14 1 -4
6 -4 23 0 37 l6 27 19 -29 c14 -22 16 -31 7 -37z m101 49 c7 -8 7 -18 2 -27
-15 -24 -11 -34 7 -19 15 12 16 12 9 -6 -5 -11 -11 -28 -13 -37 -3 -10 -9 -18
-13 -18 -9 0 -50 53 -50 64 0 16 18 3 29 -20 6 -15 14 -24 18 -21 3 4 -2 18
-11 32 -26 39 -5 86 22 52z m117 -48 c-1 -8 -6 -24 -10 -36 -7 -22 -8 -22 -29
10 -13 17 -19 34 -16 37 4 3 13 16 20 29 l13 25 13 -25 c7 -14 11 -32 9 -40z
m317 -16 c-9 -18 -20 -33 -25 -33 -5 0 -2 11 7 25 10 15 14 34 11 45 -7 22
-25 27 -25 8 0 -6 -3 -8 -6 -5 -4 4 -1 13 6 22 11 13 14 12 30 -7 16 -21 16
-25 2 -55z m1445 7 c6 0 19 -24 29 -52 10 -30 20 -45 22 -36 2 9 -5 32 -14 50
-15 29 -15 31 -1 20 23 -20 57 -94 57 -126 0 -15 -9 -45 -20 -66 -33 -65 -83
-87 -174 -76 -30 4 -62 14 -72 21 -17 13 -16 14 11 6 69 -21 129 -22 162 -1
40 24 83 91 83 127 -1 24 -4 20 -20 -21 -34 -88 -86 -119 -161 -98 l-34 10 41
1 c54 1 88 29 104 85 16 58 7 93 -41 157 -45 61 -51 79 -10 32 15 -18 32 -33
38 -33z m-1537 5 c0 -5 -5 -3 -10 5 -5 8 -10 20 -10 25 0 6 5 3 10 -5 5 -8 10
-19 10 -25z m381 12 c-10 -9 -11 -8 -5 6 3 10 9 15 12 12 3 -3 0 -11 -7 -18z
m-511 -6 c0 -3 -6 -14 -14 -23 -10 -13 -15 -15 -24 -6 -18 18 -14 32 5 17 15
-12 16 -12 11 8 -4 16 -2 20 8 16 8 -3 14 -8 14 -12z m558 -6 c-6 -14 -13 -23
-15 -21 -5 5 15 46 22 46 3 0 -1 -11 -7 -25z m-2254 -42 c-13 -32 -23 -74 -23
-93 l1 -35 8 33 c13 57 28 58 22 3 -6 -62 14 -97 61 -109 l32 -9 -43 -7 c-105
-19 -163 71 -117 181 15 35 62 92 76 93 4 0 -4 -26 -17 -57z m1733 25 c-16
-10 -21 -2 -13 19 6 15 9 15 16 3 6 -9 5 -17 -3 -22z m143 22 c0 -5 -2 -10 -4
-10 -3 0 -8 5 -11 10 -3 6 -1 10 4 10 6 0 11 -4 11 -10z m167 -47 c-13 -13
-13 -10 -3 22 9 30 12 32 14 15 2 -13 -3 -29 -11 -37z m176 32 c-3 -9 -8 -14
-10 -11 -3 3 -2 9 2 15 9 16 15 13 8 -4z m-672 -44 c20 -25 25 -46 10 -37 -5
3 -12 -5 -15 -19 -8 -33 -22 -32 -41 4 -15 29 -12 61 6 61 5 0 9 10 10 23 0
15 2 17 6 7 3 -8 14 -26 24 -39z m639 30 c-5 -11 -15 -23 -21 -27 -6 -3 -3 5
6 20 20 30 30 35 15 7z m-853 -83 l-14 -33 -17 34 c-15 28 -16 38 -5 63 l12
29 19 -29 c17 -27 17 -34 5 -64z m542 42 c12 -25 16 -37 8 -28 -8 10 -18 14
-22 10 -5 -4 -6 -2 -2 3 10 18 -10 42 -24 28 -8 -8 -7 -17 6 -37 10 -14 21
-23 26 -20 12 7 11 -7 -1 -26 -5 -8 -10 -10 -10 -4 0 6 -11 23 -25 38 l-25 27
22 29 c12 17 22 29 24 27 1 -1 11 -22 23 -47z m-1783 1 c-19 -36 -21 -81 -3
-81 9 0 8 -3 -2 -9 -7 -5 -10 -14 -7 -20 4 -6 3 -11 -2 -11 -17 0 -22 44 -11
86 13 46 29 78 36 71 2 -3 -3 -19 -11 -36z m1348 11 c13 -26 13 -31 -3 -56
-16 -23 -19 -25 -31 -11 -7 8 -10 24 -7 36 4 16 3 18 -9 8 -19 -15 -18 -4 2
26 21 32 30 31 48 -3z m212 -3 c8 -17 11 -28 5 -25 -6 4 -11 -1 -11 -11 0 -11
-5 -24 -11 -30 -6 -6 -9 -17 -7 -24 3 -8 12 -1 23 18 17 29 20 30 31 15 21
-31 26 -62 13 -78 -10 -12 -14 -12 -21 -2 -6 10 -10 10 -16 1 -5 -8 -14 0 -26
25 -10 20 -22 45 -27 54 -12 23 -11 45 1 69 15 27 27 24 46 -12z m123 -19 c0
-9 -6 -4 -14 10 -19 33 -19 49 0 24 8 -10 14 -26 14 -34z m-45 25 c-6 -16 -24
-21 -24 -7 0 11 11 22 21 22 5 0 6 -7 3 -15z m206 0 c0 -8 -4 -15 -10 -15 -5
0 -7 7 -4 15 4 8 8 15 10 15 2 0 4 -7 4 -15z m179 -39 c-30 -54 -30 -55 -13
-87 9 -18 23 -39 31 -47 8 -9 10 -18 5 -26 -5 -6 -12 -24 -16 -41 -7 -29 -8
-29 -22 -11 -8 11 -14 24 -14 30 0 5 7 1 15 -10 14 -19 14 -19 15 2 0 11 -6
26 -12 34 -11 12 -10 12 5 1 25 -20 22 2 -9 51 -26 40 -26 42 -9 77 20 43 44
81 50 81 3 0 -9 -24 -26 -54z m117 45 c-3 -4 -10 -21 -16 -36 -6 -15 -13 -25
-16 -22 -6 6 23 67 32 67 3 0 3 -4 0 -9z m-1898 -37 c18 -13 22 -25 22 -71 0
-55 -2 -58 -48 -103 -88 -85 -208 -117 -333 -88 -44 10 -57 19 -88 60 -29 39
-35 56 -32 86 5 62 18 69 23 13 6 -58 30 -91 90 -122 49 -25 168 -28 222 -5
117 49 174 143 130 211 -20 31 -44 32 -77 1 -14 -13 -43 -26 -64 -29 -21 -3
-47 -7 -58 -9 -11 -2 -21 3 -23 13 -2 12 6 16 30 17 18 1 56 10 83 21 61 24
94 26 123 5z m1656 -8 c-6 -15 -24 -23 -24 -11 0 8 24 34 28 30 1 -1 0 -10 -4
-19z m-246 2 c-2 -7 2 -12 8 -11 7 1 9 -8 6 -24 -3 -18 -7 -21 -12 -12 -16 29
-21 59 -11 59 6 0 10 -6 9 -12z m196 -3 c3 -8 1 -15 -4 -15 -6 0 -10 7 -10 15
0 8 2 15 4 15 2 0 6 -7 10 -15z m1426 -30 c0 -42 -51 -105 -84 -104 -19 0 -19
1 4 10 37 15 69 59 70 97 0 17 2 32 5 32 3 0 5 -16 5 -35z m-1976 -64 c-15
-30 -15 -34 1 -51 9 -10 23 -16 31 -13 17 6 18 -8 2 -27 -7 -8 -3 -6 9 4 21
18 22 20 6 32 -10 7 -21 10 -24 8 -4 -2 -9 3 -13 11 -3 8 -1 15 4 15 5 0 10 8
12 18 2 11 11 2 26 -30 l23 -47 -22 -25 -22 -25 -43 70 c-48 78 -52 94 -28
128 l17 23 18 -29 c18 -28 18 -32 3 -62z m110 -29 c-19 -35 -34 -28 -34 17 0
13 -3 22 -6 18 -4 -3 -13 1 -22 9 -13 14 -13 17 3 32 14 13 16 14 13 2 -3 -8
4 -24 14 -34 10 -11 16 -27 13 -36 -3 -9 0 -8 10 4 13 17 13 21 -3 35 -22 19
-34 49 -26 63 4 5 17 -10 31 -34 24 -42 24 -44 7 -76z m319 46 c6 -4 15 -2 19
5 19 29 6 -31 -13 -62 l-21 -34 -20 41 c-19 37 -20 45 -8 84 l13 43 9 -35 c6
-19 15 -38 21 -42z m207 52 c0 -5 -4 -10 -10 -10 -5 0 -10 5 -10 10 0 6 5 10
10 10 6 0 10 -4 10 -10z m-440 -22 c0 -6 8 -20 17 -30 16 -18 15 -20 -5 -40
-18 -19 -24 -20 -34 -9 -11 11 -10 13 4 8 9 -3 19 0 21 8 8 20 -3 26 -26 13
-17 -9 -19 -8 -14 6 4 9 2 16 -4 16 -5 0 -2 11 7 25 16 24 34 26 34 3z m379
-12 c-3 -3 -11 5 -18 17 -13 21 -12 21 5 5 10 -10 16 -20 13 -22z m226 15 c-3
-6 -11 -11 -16 -11 -5 0 -4 6 3 14 14 16 24 13 13 -3z m-250 -36 c25 -44 26
-46 9 -75 l-18 -29 -22 39 c-33 58 -37 76 -19 94 9 9 18 16 20 16 2 0 15 -20
30 -45z m59 19 c3 -8 2 -12 -4 -9 -6 3 -10 10 -10 16 0 14 7 11 14 -7z m55
-14 c11 -22 10 -23 -2 -8 -8 10 -17 15 -20 11 -4 -3 -7 -2 -7 4 0 10 12 25 15
21 1 -2 8 -14 14 -28z m-1889 16 c0 -2 -13 -9 -30 -15 -16 -5 -30 -6 -30 -1 0
5 8 11 18 13 24 7 42 8 42 3z m1570 -22 c0 -8 -5 -12 -10 -9 -6 4 -8 11 -5 16
9 14 15 11 15 -7z m428 -18 l-13 -26 -14 23 c-13 20 -13 21 1 9 13 -10 16 -9
21 10 4 12 9 19 12 16 4 -3 1 -18 -7 -32z m-1198 -16 c19 -27 19 -29 3 -23
-21 7 -33 22 -33 41 0 19 7 15 30 -18z m1052 18 c-5 -8 -6 -22 -1 -33 13 -33
8 -42 -6 -10 -13 30 -10 55 7 55 7 0 7 -4 0 -12z m-2037 -78 c44 -21 105 -21
162 1 14 5 28 8 30 5 2 -2 -16 -12 -41 -21 -86 -33 -187 -8 -215 53 -17 37
-12 50 5 15 10 -20 32 -40 59 -53z m1581 -7 c-3 -3 -11 6 -17 21 -12 25 -13
25 -26 6 -12 -16 -11 -25 2 -56 21 -51 13 -53 -13 -3 l-22 40 22 33 22 33 19
-34 c10 -20 16 -37 13 -40z m151 53 c-7 -15 -16 -21 -21 -16 -6 6 -4 15 4 25
19 23 29 18 17 -9z m213 -120 c0 -5 -7 -3 -15 4 -8 7 -15 20 -15 29 0 10 -8
26 -18 37 -10 11 -16 26 -14 33 3 8 0 11 -7 7 -13 -8 -14 -4 -5 18 4 11 17 -6
40 -52 19 -37 34 -71 34 -76z m158 119 c-3 -3 -9 2 -12 12 -6 14 -5 15 5 6 7
-7 10 -15 7 -18z m-427 -27 c7 -13 5 -25 -8 -43 -10 -13 -22 -25 -27 -25 -5 0
1 11 14 25 23 24 23 25 5 45 -20 22 -35 19 -17 -3 9 -10 8 -18 -3 -33 -14 -18
-15 -17 -9 9 4 17 2 27 -5 27 -6 0 -11 -5 -11 -12 0 -6 -3 -9 -6 -5 -3 3 2 17
13 30 19 27 34 23 54 -15z m114 -6 c15 -33 14 -37 -3 -55 -19 -18 -20 -18 -41
12 -19 26 -20 34 -10 53 l12 22 8 -22 c5 -12 6 -28 3 -36 -3 -8 -1 -17 5 -21
19 -11 23 21 7 59 -8 20 -11 34 -5 31 5 -4 16 -23 24 -43z m279 22 c3 -8 2
-12 -4 -9 -6 3 -10 10 -10 16 0 14 7 11 14 -7z m-16 -100 c-2 -2 -12 12 -23
32 -22 42 -38 39 -45 -7 -4 -26 -7 -30 -12 -16 -4 10 0 35 9 58 l16 40 29 -51
c16 -29 28 -54 26 -56z m-1901 90 c-3 -3 -12 -4 -19 -1 -8 3 -5 6 6 6 11 1 17
-2 13 -5z m1412 -54 c0 -10 -3 -8 -9 5 -12 27 -12 43 0 25 5 -8 9 -22 9 -30z
m284 25 c-3 -9 -8 -14 -10 -11 -3 3 -2 9 2 15 9 16 15 13 8 -4z m241 -11 c3
-8 2 -12 -4 -9 -6 3 -10 10 -10 16 0 14 7 11 14 -7z m-553 -84 c-25 -17 -28
-45 -9 -82 11 -21 18 -41 15 -44 -3 -3 -23 30 -44 74 -37 76 -39 82 -24 105
l15 26 27 -37 c15 -20 24 -39 20 -42z m81 38 l23 -43 -21 -40 c-13 -22 -23
-47 -23 -56 -1 -9 -8 -22 -16 -29 -17 -14 -20 -40 -5 -40 6 0 10 5 10 11 0 6
7 17 15 25 12 13 16 11 31 -11 9 -14 14 -28 11 -31 -3 -3 -8 4 -12 15 -3 12
-11 21 -16 21 -6 0 -7 -9 -4 -20 4 -14 2 -20 -8 -20 -9 0 -17 -6 -20 -12 -7
-22 -36 48 -31 73 9 41 27 70 35 58 4 -7 13 2 23 21 20 40 20 41 2 34 -20 -8
-39 29 -23 46 9 10 9 11 0 6 -14 -7 -18 15 -6 27 10 10 9 10 35 -35z m88 -18
c-6 -12 -14 -19 -17 -17 -2 3 0 15 7 26 13 26 -4 29 -20 4 -10 -16 -10 -16 -8
2 4 28 20 37 36 21 11 -11 11 -18 2 -36z m154 -39 c-5 -6 -30 23 -37 43 -6 14
-11 16 -19 8 -8 -8 -6 -19 8 -41 11 -16 24 -31 29 -33 11 -3 12 -1 -10 -48
l-16 -35 5 32 c5 31 -18 93 -37 102 -5 2 2 14 14 27 l23 24 21 -37 c12 -21 20
-40 19 -42z m22 47 c-9 -12 -16 -20 -16 -16 0 3 -3 14 -7 24 -4 11 -3 15 5 10
6 -3 14 -1 17 5 4 5 9 8 12 5 3 -2 -2 -15 -11 -28z m132 -8 c-7 -10 -14 -17
-17 -15 -4 4 18 35 25 35 2 0 -1 -9 -8 -20z m105 8 c-6 -7 -12 -20 -15 -28 -3
-10 -6 -8 -10 8 -4 12 -2 20 2 17 5 -3 11 -1 15 5 3 5 9 10 12 10 3 0 1 -6 -4
-12z m-388 -67 c-12 -12 -13 -11 -9 10 5 23 5 23 -10 5 -11 -13 -13 -23 -6
-30 5 -5 10 -15 10 -20 0 -6 -7 -2 -15 8 -13 17 -12 24 7 58 l23 39 7 -28 c5
-19 3 -32 -7 -42z m187 55 c6 4 5 -2 -1 -15 -16 -30 -29 -26 -23 7 3 15 7 21
10 14 2 -6 8 -9 14 -6z m-342 -27 c0 -5 -4 -9 -10 -9 -5 0 -10 7 -10 16 0 8 5
12 10 9 6 -3 10 -10 10 -16z m373 3 c-10 -10 -20 -17 -22 -16 -6 5 20 34 30
34 5 0 1 -8 -8 -18z m130 -39 c-5 -12 -8 -13 -20 -1 -8 9 -11 22 -7 33 7 17 8
17 20 0 7 -9 10 -24 7 -32z m-75 -15 l32 -51 -16 -44 c-9 -24 -21 -46 -25 -49
-5 -3 -4 7 1 21 21 55 21 81 -2 101 l-21 19 6 -35 c6 -34 6 -34 -7 -10 -12 21
-12 27 0 44 12 17 11 22 -3 38 -9 10 -12 18 -7 18 5 0 24 -24 42 -52z m31 12
c12 -22 21 -44 21 -48 0 -9 -34 47 -43 71 -11 30 0 18 22 -23z m-949 -44 c13
-22 19 -36 13 -33 -11 7 -63 94 -63 105 0 7 16 -17 50 -72z m470 49 c0 -8 -4
-17 -10 -20 -6 -4 -10 5 -10 20 0 15 4 24 10 20 6 -3 10 -12 10 -20z m123 -24
c10 -19 11 -33 5 -42 -8 -11 -9 -11 -6 1 3 8 -4 23 -14 33 -16 15 -19 15 -24
3 -3 -8 1 -25 10 -38 9 -12 16 -29 15 -38 0 -10 -4 -7 -11 8 -6 12 -15 22 -20
22 -12 0 -10 35 3 64 14 29 22 27 42 -13z m250 9 c3 -11 2 -20 -3 -20 -8 0
-20 24 -20 41 0 17 17 1 23 -21z m-785 -67 c63 -112 84 -153 78 -153 -2 0 -21
30 -41 68 -21 37 -51 91 -67 120 -16 28 -27 52 -24 52 2 0 27 -39 54 -87z
m632 58 c12 -31 5 -75 -11 -66 -5 4 -9 0 -9 -7 -1 -7 -7 -1 -15 13 -11 21 -12
32 -2 58 14 39 21 39 37 2z m600 -11 c-11 -22 -23 -40 -25 -40 -3 0 4 18 15
40 11 22 23 40 25 40 3 0 -4 -18 -15 -40z m-481 3 c16 -43 64 -127 80 -139 9
-7 11 -19 6 -33 l-7 -23 -15 21 c-8 12 -15 31 -16 44 0 12 -8 32 -18 45 l-17
22 -10 -28 c-6 -17 -6 -35 -1 -43 5 -8 9 -18 8 -24 0 -5 -6 1 -13 15 -12 21
-12 30 0 58 9 23 11 39 4 51 -8 14 -10 13 -16 -6 -3 -13 -10 -20 -15 -17 -5 3
-9 -5 -10 -18 0 -22 -1 -22 -8 -3 -5 11 -4 23 1 26 5 3 10 19 12 35 2 16 4 32
5 37 2 17 20 5 30 -20z m61 -44 c0 -10 5 -19 11 -19 5 0 7 -5 4 -11 -5 -6 -12
-4 -21 8 -16 21 -19 57 -4 48 6 -3 10 -15 10 -26z m-227 -34 c21 -43 21 -41 1
-49 -8 -3 -12 -2 -9 3 7 13 -16 62 -26 55 -5 -3 -9 -14 -9 -25 0 -10 -4 -19
-10 -19 -5 0 -10 3 -10 6 0 10 34 64 40 64 4 0 14 -16 23 -35z m110 -27 c8 -5
8 -14 0 -30 -6 -13 -14 -32 -18 -43 -5 -16 -10 -13 -32 24 -26 44 -26 44 -8
78 l19 34 14 -28 c8 -15 20 -31 25 -35z m-657 -70 c79 -134 80 -136 66 -123
-12 11 -142 222 -142 230 0 16 15 -6 76 -107z m1127 37 c-9 -19 -18 -33 -21
-31 -4 5 26 66 33 66 3 0 -3 -16 -12 -35z m-692 -25 c5 0 9 5 9 12 0 6 9 1 20
-12 14 -16 17 -27 10 -35 -11 -14 -3 -44 16 -60 7 -5 15 -21 18 -35 l7 -25
-18 24 c-34 46 -91 159 -85 166 4 4 8 -3 10 -14 2 -12 8 -21 13 -21z m49 30
c0 -5 -4 -10 -10 -10 -5 0 -10 5 -10 10 0 6 5 10 10 10 6 0 10 -4 10 -10z m44
-34 c-7 -19 -20 -21 -30 -4 -4 7 -3 8 4 4 8 -5 12 2 12 21 1 23 2 25 10 11 6
-9 7 -23 4 -32z m606 -16 c-17 -33 -33 -60 -35 -60 -3 0 8 27 25 60 17 33 33
60 35 60 3 0 -8 -27 -25 -60z m-546 18 c19 -27 20 -57 2 -80 -16 -22 -22 -22
-29 -4 -4 10 -1 13 7 10 17 -6 29 22 20 48 -9 28 -40 18 -37 -12 2 -21 1 -22
-7 -8 -7 11 -6 25 2 42 14 32 22 32 42 4z m148 -10 c-8 -8 -9 -4 -5 13 4 13 8
18 11 10 2 -7 -1 -18 -6 -23z m-58 -54 c-16 -29 -20 -31 -26 -17 -10 26 -9 43
2 43 5 0 7 -8 3 -17 -3 -10 -2 -14 2 -10 5 4 8 24 7 45 -3 37 -3 37 14 14 15
-22 15 -26 -2 -58z m76 15 c0 -11 4 -17 10 -14 6 4 7 -1 3 -11 -6 -16 -7 -15
-20 2 -15 21 -17 44 -3 44 6 0 10 -9 10 -21z m-200 -67 c0 -7 -7 -20 -15 -28
-17 -18 -19 -11 -5 16 7 13 7 21 0 25 -5 3 -10 14 -10 23 1 15 2 15 15 -2 8
-11 15 -26 15 -34z m90 -6 c0 -6 -7 -1 -15 10 -15 19 -15 19 -30 0 -8 -11 -15
-16 -15 -12 0 4 8 18 18 31 l17 23 12 -21 c7 -12 12 -26 13 -31z m70 50 c0 -2
-8 -10 -17 -17 -16 -13 -17 -12 -4 4 13 16 21 21 21 13z m20 -38 c0 -13 -4
-30 -10 -38 -7 -12 -10 -11 -16 5 -4 11 -9 23 -11 28 -2 4 0 7 6 7 5 0 11 -6
14 -12 2 -7 2 -3 0 10 -2 12 1 22 7 22 5 0 10 -10 10 -22z m-45 -29 c9 -17 15
-33 13 -35 -3 -2 -12 12 -21 31 -21 43 -13 47 8 4z m361 4 l-6 -28 15 25 c16
28 21 19 4 -11 -5 -11 -14 -17 -20 -14 -5 4 -9 -2 -9 -12 -1 -17 -50 -107 -50
-90 0 11 63 157 68 157 2 0 1 -12 -2 -27z m-431 -3 c-3 -5 -1 -11 5 -15 5 -3
10 -11 10 -17 0 -7 -6 -6 -15 2 -17 14 -21 55 -5 45 6 -4 8 -10 5 -15z m-17
-55 c-3 -3 -9 2 -12 12 -6 14 -5 15 5 6 7 -7 10 -15 7 -18z m-33 -70 c20 -38
29 -61 20 -50 -19 23 -82 145 -67 130 6 -5 27 -41 47 -80z m-6 55 c11 -24 11
-24 -3 -6 -9 11 -16 24 -16 30 0 12 5 7 19 -24z m118 -2 c-3 -8 -6 -5 -6 6 -1
11 2 17 5 13 3 -3 4 -12 1 -19z m-58 -28 c11 -24 11 -24 -3 -6 -9 11 -16 24
-16 30 0 12 5 7 19 -24z m45 14 c9 -24 2 -26 -12 -4 -7 11 -8 20 -3 20 5 0 12
-7 15 -16z m-14 -50 c0 -8 -5 -12 -10 -9 -6 4 -8 11 -5 16 9 14 15 11 15 -7z
m-18 -46 c-7 -7 -12 -8 -12 -2 0 14 12 26 19 19 2 -3 -1 -11 -7 -17z"/>
<path d="M3370 4662 c0 -5 7 -13 16 -16 10 -4 14 -1 12 6 -5 15 -28 23 -28 10z"/>
<path d="M4120 4655 c0 -9 -6 -12 -17 -8 -10 3 -15 3 -11 -1 4 -4 20 -9 37
-10 29 -2 30 -1 14 16 -20 22 -23 22 -23 3z"/>
<path d="M3845 4650 c3 -5 11 -10 16 -10 6 0 7 5 4 10 -3 6 -11 10 -16 10 -6
0 -7 -4 -4 -10z"/>
<path d="M4050 4652 c0 -12 19 -26 26 -19 2 2 -2 10 -11 17 -9 8 -15 8 -15 2z"/>
<path d="M3975 4640 c3 -5 12 -7 20 -3 21 7 19 13 -6 13 -11 0 -18 -4 -14 -10z"/>
<path d="M4178 4633 c7 -3 16 -2 19 1 4 3 -2 6 -13 5 -11 0 -14 -3 -6 -6z"/>
<path d="M4400 4652 c0 -17 21 -25 31 -13 5 6 6 9 3 6 -4 -3 -13 0 -21 6 -9 8
-13 8 -13 1z"/>
<path d="M5675 4650 c4 -6 11 -8 16 -5 14 9 11 15 -7 15 -8 0 -12 -5 -9 -10z"/>
<path d="M5798 4653 c7 -3 16 -2 19 1 4 3 -2 6 -13 5 -11 0 -14 -3 -6 -6z"/>
<path d="M5748 4643 c7 -3 16 -2 19 1 4 3 -2 6 -13 5 -11 0 -14 -3 -6 -6z"/>
<path d="M6300 4646 c-14 -14 -12 -39 3 -33 6 2 11 9 10 15 -1 5 5 9 14 8 9 0
18 4 20 11 5 14 -33 13 -47 -1z"/>
<path d="M3865 4570 c3 -5 11 -10 16 -10 6 0 7 5 4 10 -3 6 -11 10 -16 10 -6
0 -7 -4 -4 -10z"/>
<path d="M4197 4449 c7 -7 15 -10 18 -7 3 3 -2 9 -12 12 -14 6 -15 5 -6 -5z"/>
<path d="M4380 4416 c0 -2 7 -7 16 -10 8 -3 12 -2 9 4 -6 10 -25 14 -25 6z"/>
<path d="M4075 4404 c11 -11 19 -12 32 -5 10 6 16 11 13 11 -3 1 -17 3 -33 5
-24 3 -25 2 -12 -11z"/>
<path d="M4150 4403 c0 -9 49 -33 67 -33 7 0 13 -4 13 -9 0 -11 -39 -9 -58 3
-7 4 -17 4 -22 1 -6 -3 -13 1 -16 9 -3 9 -10 16 -15 16 -18 0 11 -39 29 -40 9
0 34 -2 54 -3 50 -3 50 13 2 40 -41 24 -54 28 -54 16z"/>
<path d="M3996 4381 c-4 -5 -2 -12 3 -15 5 -4 12 -2 15 3 4 5 2 12 -3 15 -5 4
-12 2 -15 -3z"/>
<path d="M4160 4270 c0 -5 5 -10 10 -10 6 0 10 5 10 10 0 6 -4 10 -10 10 -5 0
-10 -4 -10 -10z"/>
<path d="M3924 4245 c11 -8 25 -15 30 -15 6 0 2 7 -8 15 -11 8 -25 15 -30 15
-6 0 -2 -7 8 -15z"/>
<path d="M3880 4225 c47 -18 74 -18 31 0 -18 8 -41 15 -50 14 -9 0 0 -7 19
-14z"/>
<path d="M4280 4162 c0 -12 19 -26 26 -19 2 2 -2 10 -11 17 -9 8 -15 8 -15 2z"/>
<path d="M4656 3132 c-3 -6 3 -12 15 -15 12 -3 19 -1 16 6 -5 15 -24 20 -31 9z"/>
<path d="M4626 2852 c6 -4 13 -15 17 -24 3 -10 12 -18 19 -18 9 0 9 3 2 8 -6
4 -13 15 -17 25 -3 9 -12 17 -19 17 -9 0 -9 -3 -2 -8z"/>
<path d="M4757 2994 c-4 -4 -7 -14 -7 -23 0 -11 3 -12 11 -4 6 6 10 16 7 23
-2 6 -7 8 -11 4z"/>
<path d="M4650 2983 c0 -13 5 -23 10 -23 13 0 13 11 0 30 -8 12 -10 11 -10 -7z"/>
<path d="M4690 2921 c0 -6 4 -13 10 -16 6 -3 7 1 4 9 -7 18 -14 21 -14 7z"/>
<path d="M4946 2824 c-8 -20 0 -32 14 -18 5 5 5 15 1 22 -6 11 -10 10 -15 -4z"/>
<path d="M3346 2740 c-18 -45 -21 -96 -6 -105 6 -4 8 5 4 22 -3 16 1 48 10 73
19 56 14 64 -8 10z"/>
<path d="M3340 2601 c0 -12 21 -28 53 -40 17 -7 27 -7 27 -1 0 6 -9 10 -20 10
-11 0 -29 9 -40 20 -11 11 -20 16 -20 11z"/>
<path d="M4895 2750 c-8 -13 -1 -24 14 -19 6 3 7 10 2 18 -6 10 -10 10 -16 1z"/>
<path d="M4896 2705 c4 -8 8 -15 10 -15 2 0 4 7 4 15 0 8 -4 15 -10 15 -5 0
-7 -7 -4 -15z"/>
<path d="M4686 2751 c-4 -6 -1 -21 6 -33 l13 -23 3 24 c4 26 -12 49 -22 32z"/>
<path d="M4996 2745 c-4 -14 -2 -33 3 -43 8 -15 11 -14 20 10 10 28 6 58 -9
58 -4 0 -11 -11 -14 -25z"/>
<path d="M5040 2665 c-6 -15 -9 -33 -6 -39 2 -6 5 -5 5 3 1 11 4 11 16 1 12
-10 15 -10 16 1 4 49 -17 72 -31 34z"/>
<path d="M4744 2655 c-11 -22 -10 -23 7 -12 20 13 24 23 11 31 -4 2 -12 -6
-18 -19z"/>
<path d="M5166 2653 c-4 -13 -2 -32 5 -45 12 -22 12 -22 20 -3 4 12 8 14 8 6
1 -8 4 -11 8 -8 3 4 -1 15 -9 24 -9 10 -18 25 -20 33 -4 11 -7 9 -12 -7z"/>
<path d="M4946 2661 c-4 -7 -5 -15 -2 -18 9 -9 19 4 14 18 -4 11 -6 11 -12 0z"/>
<path d="M5290 2649 c0 -5 -5 -7 -10 -4 -6 4 -5 -5 2 -19 6 -14 14 -26 18 -26
4 0 11 -10 15 -22 6 -20 8 -21 12 -5 3 10 -3 34 -12 53 -16 34 -25 43 -25 23z"/>
<path d="M4847 2484 c-4 -4 -7 -14 -7 -23 0 -11 3 -12 11 -4 6 6 10 16 7 23
-2 6 -7 8 -11 4z"/>
<path d="M4960 2461 c0 -5 5 -13 10 -16 6 -3 10 -2 10 4 0 5 -4 13 -10 16 -5
3 -10 2 -10 -4z"/>
<path d="M4935 2350 c-4 -12 -5 -24 -2 -27 3 -2 8 5 12 17 4 12 5 24 2 27 -3
2 -8 -5 -12 -17z"/>
<path d="M5120 2368 c0 -10 -5 -18 -12 -18 -9 0 -9 -3 0 -12 19 -19 37 4 23
29 -10 17 -10 17 -11 1z"/>
<path d="M5157 2283 c-12 -12 -7 -49 9 -69 15 -18 15 -18 5 3 -16 31 -13 40 4
17 8 -10 15 -14 15 -8 0 19 -26 64 -33 57z"/>
<path d="M4996 2175 c4 -8 8 -15 10 -15 2 0 4 7 4 15 0 8 -4 15 -10 15 -5 0
-7 -7 -4 -15z"/>
<path d="M7114 4655 c0 -55 1 -76 3 -47 2 29 2 74 0 100 -2 26 -3 2 -3 -53z"/>
<path d="M3031 4654 c0 -11 3 -14 6 -6 3 7 2 16 -1 19 -3 4 -6 -2 -5 -13z"/>
<path d="M3031 4594 c0 -11 3 -14 6 -6 3 7 2 16 -1 19 -3 4 -6 -2 -5 -13z"/>
<path d="M3031 4504 c0 -11 3 -14 6 -6 3 7 2 16 -1 19 -3 4 -6 -2 -5 -13z"/>
<path d="M6968 4493 c6 -2 18 -2 25 0 6 3 1 5 -13 5 -14 0 -19 -2 -12 -5z"/>
<path d="M7063 4493 c9 -2 25 -2 35 0 9 3 1 5 -18 5 -19 0 -27 -2 -17 -5z"/>
<path d="M7943 4473 c15 -2 37 -2 50 0 12 2 0 4 -28 4 -27 0 -38 -2 -22 -4z"/>
<path d="M8037 4455 c-15 -14 -24 -25 -19 -25 5 0 19 11 32 25 30 32 23 32
-13 0z"/>
<path d="M3340 4430 c8 -5 20 -10 25 -10 6 0 3 5 -5 10 -8 5 -19 10 -25 10 -5
0 -3 -5 5 -10z"/>
<path d="M5830 4405 c19 -19 36 -35 39 -35 3 0 -10 16 -29 35 -19 19 -36 35
-39 35 -3 0 10 -16 29 -35z"/>
<path d="M7959 4383 l-34 -38 38 34 c34 33 42 41 34 41 -2 0 -19 -17 -38 -37z"/>
<path d="M8320 4359 l-45 -41 42 32 c37 27 61 51 51 50 -2 0 -23 -19 -48 -41z"/>
<path d="M6565 4338 l-40 -43 43 40 c39 36 47 45 39 45 -2 0 -21 -19 -42 -42z"/>
<path d="M3005 4314 c-484 -87 -677 -123 -715 -135 -19 -7 -61 -27 -93 -47
-44 -26 -56 -37 -45 -44 9 -7 7 -8 -8 -3 -13 3 -26 -1 -34 -10 -7 -8 -9 -15
-5 -15 9 0 362 71 645 130 107 23 251 52 320 66 196 39 181 33 135 51 -57 22
-108 24 -200 7z m-348 -130 c-3 -3 -12 -4 -19 -1 -8 3 -5 6 6 6 11 1 17 -2 13
-5z"/>
<path d="M3495 4310 c10 -11 20 -20 23 -20 3 0 -3 9 -13 20 -10 11 -20 20 -23
20 -3 0 3 -9 13 -20z"/>
<path d="M5883 4285 c0 -27 2 -38 4 -22 2 15 2 37 0 50 -2 12 -4 0 -4 -28z"/>
<path d="M7854 4288 l-19 -23 23 19 c21 18 27 26 19 26 -2 0 -12 -10 -23 -22z"/>
<path d="M8329 4283 c-13 -16 -12 -17 4 -4 16 13 21 21 13 21 -2 0 -10 -8 -17
-17z"/>
<path d="M3257 4279 c7 -7 15 -10 18 -7 3 3 -2 9 -12 12 -14 6 -15 5 -6 -5z"/>
<path d="M8204 4258 l-19 -23 23 19 c12 11 22 21 22 23 0 8 -8 2 -26 -19z"/>
<path d="M8249 4213 c-13 -16 -12 -17 4 -4 9 7 17 15 17 17 0 8 -8 3 -21 -13z"/>
<path d="M8029 4193 c-13 -16 -12 -17 4 -4 9 7 17 15 17 17 0 8 -8 3 -21 -13z"/>
<path d="M7969 4143 c-13 -16 -12 -17 4 -4 9 7 17 15 17 17 0 8 -8 3 -21 -13z"/>
<path d="M3620 4130 c6 -11 13 -20 16 -20 2 0 0 9 -6 20 -6 11 -13 20 -16 20
-2 0 0 -9 6 -20z"/>
<path d="M8169 4133 c-13 -16 -12 -17 4 -4 9 7 17 15 17 17 0 8 -8 3 -21 -13z"/>
<path d="M7919 4103 c-13 -16 -12 -17 4 -4 9 7 17 15 17 17 0 8 -8 3 -21 -13z"/>
<path d="M3650 4071 c0 -6 4 -13 10 -16 6 -3 7 1 4 9 -7 18 -14 21 -14 7z"/>
<path d="M7964 4038 l-19 -23 23 19 c12 11 22 21 22 23 0 8 -8 2 -26 -19z"/>
<path d="M4812 4030 c-317 -22 -670 -96 -940 -197 -98 -36 -142 -59 -142 -73
0 -4 18 -15 41 -25 63 -29 69 -43 69 -178 0 -67 -5 -128 -11 -140 -6 -12 -29
-41 -51 -63 -31 -32 -38 -47 -33 -63 3 -12 10 -21 14 -21 4 0 63 20 132 45 68
25 185 62 259 82 74 19 137 37 139 39 2 2 -3 14 -12 27 -10 16 -30 27 -54 32
-67 12 -84 29 -81 83 l3 47 42 3 c32 2 47 -2 62 -17 24 -24 47 -27 58 -7 4 8
7 51 5 95 -3 78 -4 81 -28 81 -17 0 -27 -8 -34 -25 -10 -27 -45 -45 -86 -45
-23 0 -24 3 -24 69 l0 68 75 13 c91 16 111 9 143 -50 l24 -42 -30 22 c-19 14
-39 20 -58 18 l-29 -4 30 -8 c17 -5 41 -22 55 -38 23 -26 30 -29 63 -23 l37 7
0 99 c0 73 3 99 13 99 25 -1 96 -39 106 -58 6 -12 11 -76 11 -147 l0 -126 -50
-49 c-30 -29 -50 -58 -50 -70 0 -22 2 -22 93 -15 50 3 137 10 192 15 55 5 130
10 168 12 65 2 67 3 67 28 0 21 -10 31 -55 53 -47 23 -55 32 -65 66 -6 22 -9
96 -8 163 l3 123 37 20 c67 36 88 12 236 -263 40 -73 72 -144 72 -157 0 -22 5
-24 73 -30 39 -4 91 -5 115 -3 l43 3 49 110 c95 210 134 279 162 295 27 14 29
14 60 -18 l33 -32 3 -123 c3 -140 -8 -172 -68 -192 -28 -9 -34 -16 -35 -41 0
-24 5 -30 25 -32 74 -9 437 -87 536 -116 63 -18 116 -30 118 -27 8 15 6 169
-3 193 -12 33 -48 46 -64 24 -17 -22 -111 -56 -155 -56 -77 0 -82 5 -82 76 0
51 3 64 15 64 23 0 67 -24 89 -49 26 -29 56 -28 54 2 -1 12 2 54 6 94 7 66 6
72 -12 82 -31 16 -39 14 -46 -14 -9 -34 -25 -39 -76 -25 -36 10 -41 14 -36 33
3 12 6 46 6 75 l0 52 52 -26 c87 -44 156 -102 186 -157 15 -28 37 -54 50 -58
22 -8 22 -8 22 91 0 117 10 106 -151 156 -303 93 -642 142 -1029 149 -124 2
-280 0 -348 -5z m221 -55 c34 -15 49 -28 57 -50 6 -16 28 -59 49 -95 72 -123
141 -250 141 -260 0 -24 -19 -6 -45 43 -85 160 -182 325 -202 345 -12 12 -34
22 -48 22 -16 0 -24 4 -20 11 4 5 10 9 14 7 4 -2 28 -12 54 -23z m338 -11
c-12 -9 -26 -26 -31 -38 -8 -20 -9 -20 -9 -1 -1 25 8 39 34 53 28 15 33 5 6
-14z m103 -25 c14 -11 26 -27 26 -35 0 -30 -63 -205 -71 -197 -11 12 -69 174
-69 194 0 21 45 59 70 59 10 0 29 -9 44 -21z m-889 -4 c21 -8 39 -25 45 -40
11 -29 13 -270 2 -297 -4 -9 -20 -27 -37 -39 l-30 -23 25 28 c24 26 25 35 28
163 2 74 1 146 -2 158 -4 14 -22 31 -48 43 -49 24 -35 29 17 7z m984 -9 c9
-11 0 -44 -45 -155 -31 -78 -58 -140 -61 -138 -2 3 19 62 48 131 45 109 50
130 41 151 -12 27 -2 34 17 11z m218 -10 l28 -24 0 -144 c0 -153 -6 -192 -30
-202 -13 -5 -14 -2 -3 17 7 13 14 76 16 153 5 143 -7 191 -51 212 -17 8 -18
11 -5 11 9 1 30 -10 45 -23z m-1927 -170 c39 -18 52 -74 48 -196 -3 -80 -9
-112 -23 -133 -21 -33 -32 -29 -14 5 8 14 13 66 13 138 1 135 -11 176 -55 185
-16 4 -32 11 -35 17 -7 11 23 4 66 -16z m2244 -76 c15 -15 -14 -12 -49 6 l-30
14 35 -5 c19 -3 39 -10 44 -15z m-1909 -10 c-3 -5 -18 -10 -33 -9 l-27 1 25 8
c35 11 42 11 35 0z m760 -129 c11 -5 -28 -11 -100 -15 -66 -4 -155 -10 -197
-14 -43 -4 -74 -4 -70 0 4 4 72 14 152 21 172 17 189 18 215 8z m442 2 c-20
-2 -52 -2 -70 0 -17 2 0 4 38 4 39 0 53 -2 32 -4z m-844 -40 c-7 -2 -19 -2
-25 0 -7 3 -2 5 12 5 14 0 19 -2 13 -5z m1397 -29 c170 -33 360 -87 348 -99
-3 -3 -61 10 -129 29 -68 18 -189 46 -269 60 -156 30 -224 50 -130 40 30 -3
111 -17 180 -30z m-1701 -18 c-2 -2 -53 -16 -114 -31 -60 -15 -159 -44 -219
-66 -123 -43 -131 -34 -10 12 125 47 368 108 343 85z"/>
<path d="M2011 4014 c0 -11 3 -14 6 -6 3 7 2 16 -1 19 -3 4 -6 -2 -5 -13z"/>
<path d="M6968 3803 c6 -2 18 -2 25 0 6 3 1 5 -13 5 -14 0 -19 -2 -12 -5z"/>
<path d="M7659 3773 c-13 -16 -12 -17 4 -4 9 7 17 15 17 17 0 8 -8 3 -21 -13z"/>
<path d="M4420 3720 c-13 -8 -13 -10 2 -10 9 0 20 5 23 10 8 13 -5 13 -25 0z"/>
<path d="M7498 3723 c7 -3 16 -2 19 1 4 3 -2 6 -13 5 -11 0 -14 -3 -6 -6z"/>
<path d="M7455 3710 c23 -6 25 -8 8 -9 -14 -1 -21 -7 -20 -19 1 -14 8 -17 34
-14 59 7 50 42 -13 47 -35 2 -36 2 -9 -5z"/>
<path d="M7378 3703 c6 -2 18 -2 25 0 6 3 1 5 -13 5 -14 0 -19 -2 -12 -5z"/>
<path d="M6230 3690 c0 -5 5 -10 11 -10 5 0 7 5 4 10 -3 6 -8 10 -11 10 -2 0
-4 -4 -4 -10z"/>
<path d="M7338 3693 c7 -3 16 -2 19 1 4 3 -2 6 -13 5 -11 0 -14 -3 -6 -6z"/>
<path d="M7278 3683 c6 -2 18 -2 25 0 6 3 1 5 -13 5 -14 0 -19 -2 -12 -5z"/>
<path d="M7218 3673 c7 -3 16 -2 19 1 4 3 -2 6 -13 5 -11 0 -14 -3 -6 -6z"/>
<path d="M7168 3663 c6 -2 18 -2 25 0 6 3 1 5 -13 5 -14 0 -19 -2 -12 -5z"/>
<path d="M7548 3663 c7 -3 16 -2 19 1 4 3 -2 6 -13 5 -11 0 -14 -3 -6 -6z"/>
<path d="M7278 3643 c6 -2 18 -2 25 0 6 3 1 5 -13 5 -14 0 -19 -2 -12 -5z"/>
<path d="M7418 3643 c7 -3 16 -2 19 1 4 3 -2 6 -13 5 -11 0 -14 -3 -6 -6z"/>
<path d="M6285 3630 c3 -5 14 -10 23 -10 15 0 15 2 2 10 -20 13 -33 13 -25 0z"/>
<path d="M7358 3633 c7 -3 16 -2 19 1 4 3 -2 6 -13 5 -11 0 -14 -3 -6 -6z"/>
<path d="M7238 3613 c7 -3 16 -2 19 1 4 3 -2 6 -13 5 -11 0 -14 -3 -6 -6z"/>
<path d="M7168 3603 c6 -2 18 -2 25 0 6 3 1 5 -13 5 -14 0 -19 -2 -12 -5z"/>
<path d="M4720 3415 c-291 -31 -567 -89 -782 -167 -65 -23 -116 -43 -114 -46
3 -2 62 15 132 38 753 245 1683 233 2383 -31 57 -21 107 -39 110 -39 23 0 -80
47 -177 81 -243 83 -562 149 -827 169 -177 14 -572 11 -725 -5z"/>
<path d="M3530 3290 c-9 -6 -10 -10 -3 -10 6 0 15 5 18 10 8 12 4 12 -15 0z"/>
<path d="M7106 3255 c-9 -26 -7 -32 5 -12 6 10 9 21 6 23 -2 3 -7 -2 -11 -11z"/>
<path d="M7021 3014 c0 -11 3 -14 6 -6 3 7 2 16 -1 19 -3 4 -6 -2 -5 -13z"/>
<path d="M6099 2869 l-24 -20 28 17 c15 9 27 18 27 20 0 8 -8 4 -31 -17z"/>
<path d="M6650 2727 c0 -39 13 -48 28 -19 7 12 4 22 -9 36 -19 19 -19 19 -19
-17z"/>
<path d="M6620 2670 c8 -5 22 -10 30 -10 13 0 13 1 0 10 -8 5 -22 10 -30 10
-13 0 -13 -1 0 -10z"/>
<path d="M6382 2635 c0 -16 2 -22 5 -12 2 9 2 23 0 30 -3 6 -5 -1 -5 -18z"/>
<path d="M6430 2536 c29 -32 138 -86 171 -85 17 0 13 4 -16 13 -51 16 -100 41
-145 74 l-35 25 25 -27z"/>
<path d="M7064 2358 l-19 -23 23 19 c12 11 22 21 22 23 0 8 -8 2 -26 -19z"/>
<path d="M4925 1770 c9 -16 18 -30 21 -30 2 0 -2 14 -11 30 -9 17 -18 30 -21
30 -2 0 2 -13 11 -30z"/>
<path d="M4960 1710 c6 -11 13 -20 16 -20 2 0 0 9 -6 20 -6 11 -13 20 -16 20
-2 0 0 -9 6 -20z"/>
<path d="M5240 1670 c-9 -6 -10 -10 -3 -10 6 0 15 5 18 10 8 12 4 12 -15 0z"/>
<path d="M4650 1530 c6 -11 13 -20 16 -20 2 0 0 9 -6 20 -6 11 -13 20 -16 20
-2 0 0 -9 6 -20z"/>
<path d="M4680 1480 c6 -11 13 -20 16 -20 2 0 0 9 -6 20 -6 11 -13 20 -16 20
-2 0 0 -9 6 -20z"/>
<path d="M4710 1430 c6 -11 13 -20 16 -20 2 0 0 9 -6 20 -6 11 -13 20 -16 20
-2 0 0 -9 6 -20z"/>
<path d="M4850 1400 c6 -11 15 -20 20 -20 6 0 2 9 -7 20 -10 11 -19 20 -21 20
-1 0 2 -9 8 -20z"/>
<path d="M4745 1370 c9 -16 18 -30 21 -30 2 0 -2 14 -11 30 -9 17 -18 30 -21
30 -2 0 2 -13 11 -30z"/>
</g>
</svg>
